<?xml version="1.0" encoding="UTF-8" standalone="no"?>
<svg width="29px" height="20px" viewBox="0 0 29 20" version="1.1" xmlns="http://www.w3.org/2000/svg" xmlns:xlink="http://www.w3.org/1999/xlink" xmlns:sketch="http://www.bohemiancoding.com/sketch/ns">
    <!-- Generator: Sketch 3.4 (15575) - http://www.bohemiancoding.com/sketch -->
    <title>agri</title>
    <desc>Created with Sketch.</desc>
    <defs></defs>
    <g id="Page-1" stroke="none" stroke-width="1" fill="none" fill-rule="evenodd" sketch:type="MSPage">
        <g id="Home" sketch:type="MSArtboardGroup" transform="translate(-240.000000, -1156.000000)" fill="#999999">
            <g id="Group-Copy-2" sketch:type="MSLayerGroup" transform="translate(210.000000, 1099.000000)">
                <g id="agri" transform="translate(30.000000, 57.000000)" sketch:type="MSShapeGroup">
                    <path d="M14.4464835,14.4963736 C14.5698901,14.5215385 14.6954945,14.467033 14.7621978,14.3603297 C16.410989,11.7034066 18.9006593,8.48934066 22.1471429,6.30505495 C19.1213187,9.21087912 16.9846154,12.2696703 15.6893407,15.1491209 C15.6504396,15.2356044 15.6548352,15.3349451 15.7005495,15.4179121 C15.7467033,15.5007692 15.8289011,15.5572527 15.9228571,15.5702198 C16.1342857,15.5989011 16.3538462,15.6137363 16.5749451,15.6137363 C18.6484615,15.6137363 20.7138462,14.3502198 22.080989,13.2904396 C23.6424176,12.0802198 25.1418681,10.4810989 26.0924176,9.01186813 C27.5182418,6.80824176 28.4097802,4.09241758 28.602967,1.36406593 C28.6092308,1.27725275 28.5774725,1.19208791 28.5158242,1.13021978 C28.4540659,1.06868132 28.3685714,1.03637363 28.2818681,1.04307692 C26.216044,1.18934066 21.0901099,1.85230769 18.0925275,4.84406593 C17.9878022,4.93857143 16.8841758,5.95406593 15.8578022,7.57725275 C14.4510989,9.80296703 13.8808791,12.1091209 14.2096703,14.2472527 C14.2284615,14.3718681 14.3228571,14.4712088 14.4464835,14.4963736 L14.4464835,14.4963736 Z" id="Shape"></path>
                    <path d="M6.24835165,17.6827473 C7.55153846,18.6928571 9.51989011,19.8968132 11.4961538,19.8968132 C11.7069231,19.8968132 11.9161538,19.8830769 12.1172527,19.8551648 C12.2069231,19.8428571 12.2853846,19.7891209 12.3291209,19.7103297 C12.3728571,19.6314286 12.3768132,19.5365934 12.3401099,19.4541758 C11.1058242,16.71 9.06934066,13.7948352 6.18527473,11.0253846 C9.27945055,13.1072527 11.6524176,16.1705495 13.2236264,18.7025275 C13.287033,18.8042857 13.4072527,18.8559341 13.5246154,18.831978 C13.641978,18.8076923 13.7324176,18.7132967 13.7506593,18.5947253 C14.0634066,16.5572527 13.5204396,14.3591209 12.1795604,12.2382418 C11.2015385,10.690989 10.1491209,9.72373626 10.0495604,9.6332967 C7.19307692,6.78230769 2.30769231,6.15021978 0.338791209,6.01098901 C0.256263736,6.00450549 0.174615385,6.03516484 0.116043956,6.09395604 C0.0573626374,6.15263736 0.0269230769,6.23417582 0.0328571429,6.31692308 C0.217032967,8.91703297 1.06659341,11.5052747 2.42538462,13.6051648 C3.33131868,15.0054945 4.76054945,16.5294505 6.24835165,17.6827473 L6.24835165,17.6827473 Z" id="Shape"></path>
                    <path d="M9.06461538,7.81516484 C9.93274725,8.48769231 11.2437363,9.28978022 12.56,9.28978022 C12.7002198,9.28978022 12.8397802,9.28021978 12.973956,9.26186813 C13.0338462,9.25373626 13.0859341,9.21802198 13.1149451,9.1656044 C13.1441758,9.11263736 13.1469231,9.04978022 13.1220879,8.99461538 C12.3,7.16659341 10.943956,5.22527473 9.02296703,3.38076923 C11.0836264,4.76714286 12.6640659,6.8078022 13.7108791,8.49395604 C13.752967,8.56153846 13.8331868,8.59637363 13.9113187,8.58021978 C13.9894505,8.56417582 14.0495604,8.50131868 14.0617582,8.4221978 C14.27,7.06505495 13.9084615,5.6010989 13.0154945,4.18835165 C12.3640659,3.15813187 11.6630769,2.51362637 11.5969231,2.45351648 C9.69406593,0.554505495 6.44032967,0.133626374 5.12901099,0.0407692308 C5.07373626,0.0364835165 5.01956044,0.0571428571 4.98032967,0.0961538462 C4.94131868,0.135164835 4.9210989,0.18956044 4.92505495,0.244615385 C5.04758242,1.97659341 5.61351648,3.70043956 6.51857143,5.09901099 C7.12186813,6.03175824 8.07395604,7.0467033 9.06461538,7.81516484 L9.06461538,7.81516484 Z" id="Shape"></path>
                </g>
            </g>
        </g>
    </g>
</svg>