<?xml version="1.0" encoding="UTF-8" standalone="no"?>
<svg width="26px" height="21px" viewBox="0 0 26 21" version="1.1" xmlns="http://www.w3.org/2000/svg" xmlns:xlink="http://www.w3.org/1999/xlink" xmlns:sketch="http://www.bohemiancoding.com/sketch/ns">
    <!-- Generator: Sketch 3.4 (15575) - http://www.bohemiancoding.com/sketch -->
    <title>briefcase</title>
    <desc>Created with Sketch.</desc>
    <defs></defs>
    <g id="Page-1" stroke="none" stroke-width="1" fill="none" fill-rule="evenodd" sketch:type="MSPage">
        <g id="Home" sketch:type="MSArtboardGroup" transform="translate(-240.000000, -1195.000000)" fill="#999999">
            <g id="Group-Copy-2" sketch:type="MSLayerGroup" transform="translate(210.000000, 1099.000000)">
                <g id="briefcase" transform="translate(30.000000, 96.000000)" sketch:type="MSShapeGroup">
                    <path d="M6.56143975,8.55667668 L6.56143975,9.33647017 L17.7755702,9.33647017 L17.7755702,8.55667668 L20.6785086,8.55667668 L20.6785086,9.33647017 L22.5928817,9.33647017 C23.8591788,9.33647017 24.913603,8.41986066 25.1323089,7.2157956 L25.1323089,2.61051481 L16.7549953,2.61051481 L16.7549953,0.584922909 C16.7549953,0.321592809 16.5412826,0.107722513 16.2777949,0.107722513 L8.90796849,0.107722513 C8.64448071,0.107722513 8.4307681,0.321592809 8.4307681,0.584922909 L8.4307681,2.61051481 L0,2.61051481 L0,7.62682183 C0.359148619,8.62222012 1.31044832,9.33673298 2.42820838,9.33673298 L3.65850133,9.33673298 L3.65850133,8.55693949 L6.56143975,8.55667668 L6.56143975,8.55667668 L6.56143975,8.55667668 Z M9.38522145,1.06180794 L15.800647,1.06180794 L15.800647,2.61019945 L9.38522145,2.61019945 L9.38522145,1.06180794 L9.38522145,1.06180794 Z M20.6785612,11.9767618 L20.6785612,9.97271985 L22.5929342,9.97271985 C23.62502,9.97271985 24.5427333,9.48248435 25.1323615,8.72492412 L25.1323615,20.1077225 L0,20.1077225 L0,8.86053124 C0.590731937,9.54030133 1.45924822,9.97271985 2.42820838,9.97271985 L3.65850133,9.97271985 L3.65850133,11.9767618 L6.56143975,11.9767618 L6.56143975,9.97271985 L17.7755702,9.97271985 L17.7755702,11.9767618 L20.6785612,11.9767618 L20.6785612,11.9767618 Z" id="Shape"></path>
                </g>
            </g>
        </g>
    </g>
</svg>