<?xml version="1.0" encoding="UTF-8" standalone="no"?>
<svg width="28px" height="20px" viewBox="0 0 28 20" version="1.1" xmlns="http://www.w3.org/2000/svg" xmlns:xlink="http://www.w3.org/1999/xlink" xmlns:sketch="http://www.bohemiancoding.com/sketch/ns">
    <!-- Generator: Sketch 3.4 (15575) - http://www.bohemiancoding.com/sketch -->
    <title>college1</title>
    <desc>Created with Sketch.</desc>
    <defs></defs>
    <g id="Page-1" stroke="none" stroke-width="1" fill="none" fill-rule="evenodd" sketch:type="MSPage">
        <g id="Home" sketch:type="MSArtboardGroup" transform="translate(-240.000000, -1235.000000)" fill="#999999">
            <g id="Group-Copy-2" sketch:type="MSLayerGroup" transform="translate(210.000000, 1099.000000)">
                <g id="college1" transform="translate(30.000000, 136.000000)" sketch:type="MSShapeGroup">
                    <path d="M23.458,12.267 L22.746,8.157 L14.033,13.352 L5.488,8.156 L4.778,12.592 C4.781,12.586 4.788,12.58 4.795,12.573 C4.693,12.743 4.637,12.918 4.637,13.097 C4.637,14.664 11.214,19.49 13.405,19.49 C15.598,19.49 23.601,14.665 23.601,13.097 C23.601,12.929 23.545,12.764 23.458,12.267 L23.458,12.267 Z M14.101,12.434 L0.711,4.32 L14.138,0.038 L27.529,4.26 L14.101,12.434 L14.101,12.434 Z M0.803,5.038 L0,13.929 L0.803,16.595 L1.547,13.929 L0.803,5.038 L0.803,5.038 Z" id="Shape"></path>
                </g>
            </g>
        </g>
    </g>
</svg>