<?xml version="1.0" encoding="UTF-8" standalone="no"?>
<svg width="12px" height="20px" viewBox="0 0 12 20" version="1.1" xmlns="http://www.w3.org/2000/svg" xmlns:xlink="http://www.w3.org/1999/xlink" xmlns:sketch="http://www.bohemiancoding.com/sketch/ns">
    <!-- Generator: Sketch 3.4 (15575) - http://www.bohemiancoding.com/sketch -->
    <title>lightning24</title>
    <desc>Created with Sketch.</desc>
    <defs></defs>
    <g id="Page-1" stroke="none" stroke-width="1" fill="none" fill-rule="evenodd" sketch:type="MSPage">
        <g id="Home" sketch:type="MSArtboardGroup" transform="translate(-249.000000, -1273.000000)" fill="#999999">
            <g id="Group-Copy-2" sketch:type="MSLayerGroup" transform="translate(210.000000, 1099.000000)">
                <g id="lightning24" transform="translate(39.000000, 174.000000)" sketch:type="MSShapeGroup">
                    <path d="M0.714196411,19.8687292 L7.11419641,13.4395625 C7.37671724,13.1770625 7.18921724,12.7291458 6.81836308,12.7291458 L6.30794641,12.7291458 C5.96005058,12.7291458 5.76419641,12.3270417 5.98088391,12.0541458 L9.37461308,7.77497917 C9.59127974,7.5020625 9.39755058,7.09997917 9.04752974,7.09997917 L7.34130058,7.09997917 C6.99755058,7.09997917 6.80171724,6.7083125 7.00796724,6.4333125 L11.3433631,0.666666667 C11.5496131,0.391666667 11.3537797,0 11.0100297,0 L4.15377974,0 C3.99542558,0 3.84959224,0.0895833333 3.78086308,0.23125 L0.428779744,7.0125 C0.291279744,7.28958333 0.493363077,7.61458333 0.801696411,7.61458333 L2.34752974,7.61458333 C2.65586308,7.61458333 2.85794641,7.93958333 2.72044641,8.21666667 L0.428779744,12.8541667 C0.291279744,13.1312708 0.493363077,13.45625 0.801696411,13.45625 L2.25794641,13.45625 C2.56627974,13.45625 2.76625891,13.7770833 2.63294641,14.0541458 L0.0454464106,19.39375 C-0.160803589,19.8166458 0.382946411,20.2020625 0.714196411,19.8687292 L0.714196411,19.8687292 Z" id="Shape"></path>
                </g>
            </g>
        </g>
    </g>
</svg>