<?xml version="1.0" encoding="UTF-8" standalone="no"?>
<svg width="230px" height="96px" viewBox="0 0 230 96" version="1.1" xmlns="http://www.w3.org/2000/svg" xmlns:xlink="http://www.w3.org/1999/xlink" xmlns:sketch="http://www.bohemiancoding.com/sketch/ns">
    <!-- Generator: Sketch 3.4 (15575) - http://www.bohemiancoding.com/sketch -->
    <title>id</title>
    <desc>Created with Sketch.</desc>
    <defs></defs>
    <g id="Page-1" stroke="none" stroke-width="1" fill="none" fill-rule="evenodd" sketch:type="MSPage">
        <g id="Page" sketch:type="MSArtboardGroup" transform="translate(-817.000000, -306.000000)" stroke="#000000" stroke-width="0.2">
            <g id="id" sketch:type="MSLayerGroup" transform="translate(818.000000, 307.000000)">
                <path d="M11.0566265,21.5302663 L10.6903614,21.5532688 L10.9192771,21.9673123 L11.0566265,21.5302663 L11.0566265,21.5302663 Z M11.2855422,20.8631961 L10.8277108,20.8401937 L11.7204819,21.4612591 L11.9722892,21.2082324 L11.6289157,20.748184 L11.2855422,20.8631961 L11.2855422,20.8631961 Z M4.83012048,16.9297821 L4.23493976,16.7227603 L4.18915663,17.2288136 L3.8686747,17.3208232 L4.28072289,18.3559322 L5.65421687,18.7699758 L6.98192771,19.8280872 L7.48554217,20.0811138 L7.7373494,19.9200969 L7.11927711,19.1150121 L6.02048193,18.2179177 L5.74578313,17.7808717 L4.83012048,16.9297821 L4.83012048,16.9297821 Z M15.7951807,20.9782082 L15.5662651,18.2409201 L15.2228916,17.2978208 L14.7879518,16.9297821 L14.6277108,16.0096852 L14.8566265,15.7566586 L14.6506024,15.2736077 L14.9710843,14.7215496 L14.6277108,13.6404358 L13.9409639,12.3292978 L14.9253012,10.972155 L15.2457831,9.36198547 L16.253012,9.15496368 L16.253012,9.10895884 L16.253012,8.37288136 L15.886747,7.95883777 L14.8337349,7.68280872 L14.8795181,7.24576271 L14.3301205,5.75060533 L13.0710843,4.71549637 L12.2012048,3.70338983 L10.8963855,4.30145278 L9.61445783,3.58837772 L7.62289157,3.95641646 L5.05903614,3.35835351 L4.41807229,2.78329298 L3.9373494,2.1622276 L2.79277108,1.58716707 L2.33493976,1.70217918 L1.80843373,1.47215496 L0.755421687,2.0472155 L1.07590361,2.8062954 L0.824096386,3.47336562 L1.35060241,4.16343826 L2.06024096,6.09564165 L2.58674699,6.83171913 L3.77710843,8.02784504 L5.08192771,9.5 L6.11204819,10.2360775 L7.23373494,11.7542373 L7.89759036,12.1912833 L8.97349398,12.2142857 L9.54578313,12.6513317 L10.2096386,13.4564165 L10.9879518,14.905569 L11.5831325,15.4116223 L11.6746988,15.8716707 L12.3156627,16.81477 L13.2084337,17.1598063 L13.5518072,19.0690073 L13.5518072,19.7360775 L14.0096386,20.472155 L14.3759036,20.5871671 L15.0626506,20.5181598 L15.726506,20.9322034 L15.7951807,20.9782082 L15.7951807,20.9782082 Z M0.640963855,1.58716707 L0.457831325,1.38014528 L0.320481928,1.67917676 L0.640963855,1.58716707 L0.640963855,1.58716707 Z M0.137349398,0.943099274 L3.88578059e-16,1.26513317 L0.206024096,1.28813559 L0.137349398,0.943099274 L0.137349398,0.943099274 Z M0.755421687,0 L1.14457831,0.644067797 L1.39638554,0.736077482 L0.755421687,0 L0.755421687,0 Z" id="ID.AC" fill="#FFFFFF" sketch:type="MSShapeGroup"></path>
                <path d="M112.221687,15.1416465 L111.924096,14.9346247 L111.695181,15.0496368 L112.221687,15.1416465 L112.221687,15.1416465 Z M112.885542,15.440678 L112.954217,14.5435835 L112.427711,15.1186441 L112.885542,15.440678 L112.885542,15.440678 Z M112.061446,14.0375303 L111.489157,13.6924939 L110.80241,13.531477 L110.825301,14.0145278 L112.038554,14.3135593 L112.061446,14.0375303 L112.061446,14.0375303 Z M113.274699,11.9443099 L113.160241,12.0363196 L113.503614,12.3353511 L113.274699,11.9443099 L113.274699,11.9443099 Z M112.931325,11.3002421 L113.114458,11.0932203 L112.748193,10.4491525 L112.381928,10.8861985 L112.931325,11.3002421 L112.931325,11.3002421 Z M112.885542,10.311138 L113.892771,11.0242131 L114.053012,10.909201 L112.885542,10.311138 L112.885542,10.311138 Z M96.060241,25.6767554 L96.0831325,26.8038741 L95.1674699,27.7009685 L94.4349398,28.2300242 L94.8012048,28.7590799 L94.6409639,29.748184 L94.0457831,30.4612591 L94,30.6452785 L94.1373494,30.5762712 L95.2819277,30.1392252 L96.1518072,30.18523 L96.9759036,30.4612591 L98.3951807,30.2772397 L100.020482,29.7711864 L100.203614,29.909201 L99.8373494,32.0254237 L99.9746988,32.8535109 L99.9060241,34.279661 L100.020482,34.8087167 L100.56988,34.3716707 L101.783133,33.7046005 L101.439759,35.0387409 L101.416867,35.4527845 L101.691566,36.6719128 L102.012048,37.4769976 L102.355422,38.8571429 L103.477108,39.7312349 L104.026506,39.9152542 L103.980723,41.0883777 L103.431325,41.8474576 L103.362651,41.8244552 L103.225301,41.8474576 L102.813253,42.3535109 L103.637349,43.8486683 L103.637349,44.5387409 L103.980723,45.5738499 L103.93494,46.1029056 L104.118072,46.9079903 L104.36988,46.9769976 L104.942169,46.6779661 L106.773494,46.8389831 L107.666265,47.1150121 L107.666265,47.1150121 L107.849398,46.1489104 L107.437349,46.0108959 L106.796386,46.1489104 L106.704819,45.8498789 L106.979518,45.5048426 L107.139759,44.4237288 L106.018072,43.8716707 L106.544578,43.3886199 L107.506024,42.9975787 L107.986747,41.8014528 L108.742169,41.4794189 L108.559036,39.8232446 L109.085542,40.9273608 L110.275904,40.122276 L111.351807,38.3510896 L111.649398,38.8801453 L113.022892,38.2130751 L113.068675,38.0520581 L112.679518,37.1779661 L112.816867,37.1779661 L112.931325,36.1658596 L112.175904,36.7409201 L112.313253,36.1198547 L112.26747,35.5217918 L112.610843,33.9806295 L112.519277,32.9455206 L112.816867,31.5883777 L113.045783,30.9673123 L114.190361,29.1501211 L115.106024,29.1731235 L114.510843,27.4479419 L115.060241,28.2300242 L115.563855,28.7590799 L116.571084,28.9891041 L116.731325,29.2191283 L118.951807,29.2191283 L119.661446,28.6440678 L119.798795,27.8389831 L119.157831,27.8159806 L118.631325,26.8498789 L117.761446,26.090799 L117.143373,25.9297821 L117.09759,25.6997579 L114.556627,23.5835351 L114.16747,22.5714286 L113.824096,22.3874092 L114.304819,22.2263923 L114.350602,21.9043584 L115.243373,20.9382567 L114.625301,19.8801453 L113.824096,19.098063 L112.816867,17.7869249 L113.343373,17.4188862 L112.381928,17.2808717 L113.068675,17.0738499 L112.771084,16.6368039 L110.962651,15.3716707 L111.786747,14.7736077 L111.786747,14.4745763 L110.825301,14.12954 L110.527711,13.3934625 L112.13012,13.2094431 L111.809639,12.4043584 L112.748193,13.3244552 L113.228916,13.2784504 L113.595181,12.9104116 L112.977108,12.4733656 L113.343373,12.3583535 L112.587952,11.8062954 L112.885542,11.6682809 L111.420482,10.5411622 L111.557831,10.1961259 L110.436145,9.25302663 L108.398795,9.36803874 L107.918072,9.16101695 L107.574699,9.34503632 L107.025301,9 L106.361446,9.57506053 L105.468675,9.23002421 L104.987952,9.23002421 L104.438554,9.66707022 L104.324096,9.41404358 L103.683133,9.02300242 L102.698795,10.2881356 L102.607229,11.0012107 L102.218072,11.6912833 L102.492771,12.220339 L102.355422,13.4624697 L102.515663,14.1065375 L102.33253,14.5895884 L102.286747,15.9927361 L101.760241,16.7748184 L101.462651,16.9358354 L100.959036,16.6368039 L100.318072,18.2239709 L100.089157,18.5 L100.180723,19.1670702 L100.638554,19.1900726 L100.798795,19.7421308 L100.386747,19.8801453 L99.7457831,20.5012107 L99.4939759,20.5242131 L99.3337349,20.9612591 L98.7156627,21.3292978 L98.8301205,22.3184019 L99.1506024,22.3644068 L99.1048193,23.0544794 L98.4638554,23.3075061 L98.2349398,24.5266344 L97.5253012,25.6997579 L96.7927711,25.3317191 L96.060241,25.6767554 L96.060241,25.6767554 Z" id="ID.KI" fill="#FFFFFF" sketch:type="MSShapeGroup"></path>
                <path d="M68.5445783,72.0145278 L68.0638554,72.0145278 L67.1481928,71.7384988 L66.8963855,70.1973366 L66.5072289,69.9443099 L66.1180723,69.3692494 L66.0951807,68.8401937 L65.2939759,68.7251816 L64.9963855,69.2772397 L64.7445783,69.3002421 L63.8060241,68.748184 L62.913253,68.7711864 L61.7228916,68.2651332 L60.8301205,67.1840194 L60.2807229,67.3450363 L59.8457831,67 L59.3879518,67.8970944 L59.3421687,67.8970944 L59.2048193,69.0242131 L59.0903614,69.3922518 L58.2433735,69.2082324 L58.1746988,69.1392252 L58.1518072,69.4382567 L58.0373494,69.622276 L56.526506,69.4152542 L56.3433735,70.4043584 L56.3891566,71.37046 L56.1831325,73.0496368 L56.2975904,72.8886199 L56.846988,73.003632 L56.846988,73.3946731 L56,74.4757869 L56.0915663,75.2118644 L56.6409639,75.3958838 L59.5024096,75.6719128 L61.860241,76.3159806 L63.0048193,77.0290557 L63.6,77.2590799 L66.0493976,77.6961259 L66.346988,77.1440678 L67.7433735,76.8910412 L67.8120482,76.8450363 L67.5144578,76.5 L67.4457831,75.3268765 L66.6903614,74.6598063 L66.9192771,73.9467312 L67.5831325,73.8317191 L67.9493976,73.440678 L67.9722892,73.0956416 L68.5674699,72.0375303 L68.5445783,72.0145278 L68.5445783,72.0145278 Z" id="ID.JR" fill="#FFFFFF" sketch:type="MSShapeGroup"></path>
                <path d="M67.8771084,76.5811138 L67.1445783,76.3970944 L67.373494,76.6501211 L68.2891566,76.9261501 L67.8771084,76.5811138 L67.8771084,76.5811138 Z M67.8771084,71.4745763 L67.2819277,72.5326877 L67.2590361,72.877724 L66.8927711,73.2687651 L66.2289157,73.3837772 L66,74.0968523 L66.7554217,74.7639225 L66.8240964,75.937046 L67.1216867,76.2820823 L67.1674699,76.2360775 L68.1518072,76.6501211 L68.3349398,76.4891041 L69.9144578,76.5581114 L72.5240964,77.248184 L73.1421687,77.5242131 L73.1879518,77.5472155 L73.8289157,76.2820823 L74.3096386,76.5581114 L75.2481928,75.6840194 L75.3855422,76.5811138 L76.8048193,77.2711864 L76.8506024,78.9043584 L77.0337349,79.2953995 L77.0566265,79.2953995 L77.4457831,79.4104116 L77.5144578,79.433414 L77.7433735,78.720339 L78.613253,78.0302663 L79.2771084,77.8232446 L79.460241,77.248184 L79.2771084,76.6501211 L78.9108434,76.5121065 L79.139759,74.027845 L79.2313253,73.9358354 L80.3072289,74.2808717 L81.0855422,73.4527845 L81.2,72.3026634 L81.6349398,71.0145278 L81.6349398,71.0145278 L80.9024096,70.4854722 L80.513253,70.7615012 L79.0024096,70.7615012 L78.6590361,69.4733656 L78.0409639,69.1743341 L76.7590361,69.7033898 L76.8048193,69.8184019 L76.1638554,71.6125908 L75.7060241,72.1646489 L75.1795181,72.3946731 L74.286747,71.9116223 L74.2638554,71.7276029 L72.7987952,72.0726392 L71.9746988,71.7506053 L71.013253,71.5895884 L70.8301205,71.405569 L70.5325301,71.7276029 L70.1204819,71.8196126 L68.8385542,71.566586 L68.4951807,71.3365617 L67.8771084,71.4745763 L67.8771084,71.4745763 L67.8771084,71.4745763 Z M75.8433735,66.1840194 L75.7060241,66 L75.7518072,66.1840194 L75.8433735,66.1840194 L75.8433735,66.1840194 Z" id="ID.JT" fill="#FFFFFF" sketch:type="MSShapeGroup"></path>
                <path d="M36.0891566,64.1949153 L36.226506,63.8268765 L35.5855422,63.3208232 L35.1048193,63.1368039 L34.853012,63.527845 L35.5855422,64.3789346 L36.0891566,64.1949153 L36.0891566,64.1949153 Z M31.5566265,46.3220339 L31.3963855,46.3680387 L31.1903614,46.5290557 L30,47.3571429 L30.3662651,47.9552058 L31.3277108,48.622276 L31.8771084,49.8644068 L32.5638554,51.1985472 L32.9072289,51.7046005 L35.8144578,54.0968523 L35.9975904,55.7300242 L37.9662651,57.4552058 L38.7903614,58.283293 L38.9963855,58.6973366 L39.6144578,58.9733656 L40.8277108,60.0544794 L41.4,60.8365617 L42.2240964,61.0435835 L42.2927711,61.0895884 L42.453012,61.0205811 L42.6590361,60.8595642 L42.9337349,60.6525424 L43.0939759,60.468523 L43.0710843,60.3535109 L42.2927711,58.0762712 L41.3542169,57.8002421 L40.4156627,57.409201 L40.2096386,56.374092 L40.026506,56.0290557 L39.4084337,56.1210654 L38.5156627,55.8220339 L37.7144578,54.8789346 L38.0578313,54.7409201 L39.5457831,53.5677966 L39.6373494,52.6246973 L38.653012,52.1876513 L37.8060241,52.3946731 L37.2795181,52.003632 L36.8674699,50.7845036 L35.9289157,50.6234867 L35.9060241,50.1404358 L35.2192771,49.220339 L35.1048193,49.059322 L35.0590361,49.0133172 L34.3951807,48.8523002 L33.5024096,48.2312349 L32.7698795,47.311138 L32.426506,46.3220339 L31.9915663,46 L31.5566265,46.3220339 L31.5566265,46.3220339 Z" id="ID.BE" fill="#FFFFFF" sketch:type="MSShapeGroup"></path>
                <path d="M50.686747,70.4733656 L50.0457831,70.8184019 L50,71.0254237 L50.6180723,71.0484262 L50.686747,70.4733656 L50.686747,70.4733656 Z M56.1807229,73.0956416 L56.386747,71.4164649 L56.3409639,70.4503632 L56.5240964,69.4612591 L58.0349398,69.6682809 L58.1493976,69.4842615 L58.1722892,69.18523 L58.126506,69.18523 L57.8975904,68.6791768 L57.8289157,68.0811138 L58.0807229,67.8280872 L58.0807229,67.7590799 L57.760241,67.5520581 L56.2722892,67.4600484 L55.9746988,67.1840194 L55.0361446,67.3450363 L55.0361446,67 L54.486747,67.0230024 L54.3722892,67.4140436 L53.5939759,68.7941889 L53.4795181,69.7602906 L53.2506024,70.3813559 L52.746988,70.1743341 L52.4493976,70.496368 L51.7168675,72.0605327 L51.053012,71.2784504 L50.3891566,71.8075061 L50.7554217,72.1985472 L51.9228916,72.405569 L52.2433735,72.2905569 L53.7313253,72.2445521 L53.7542169,72.1755448 L55.6084337,73.0496368 L56.1807229,73.0956416 L56.1807229,73.0956416 L56.1807229,73.0956416 Z" id="ID.BT" fill="#FFFFFF" sketch:type="MSShapeGroup"></path>
                <path d="M60.5108434,68.1150121 L58.7783133,68.2530266 L58.5493976,68.2530266 L58.2518072,68.0460048 L58.2518072,68 L58,68.2530266 L58.0686747,68.8510896 L58.2975904,69.3571429 L58.3433735,69.3571429 L58.4120482,69.4261501 L59.2590361,69.6101695 L59.373494,69.2421308 L59.5108434,68.1150121 L60.5108434,68.1150121 Z" id="ID.JK" fill="#FF2B2B" sketch:type="MSShapeGroup"></path>
                <path d="M69.7783133,41.8510896 L69.4578313,41.6440678 L69,41.8050847 L69.2289157,42.3801453 L69.7783133,41.8510896 L69.7783133,41.8510896 Z M73.0060241,38.4927361 L72.2506024,38.653753 L72.0445783,40.0569007 L72.960241,39.9188862 L73.4409639,39.7118644 L73.7614458,38.81477 L73.5783133,38.5617433 L73.0060241,38.4927361 L73.0060241,38.4927361 Z M79.4614458,49.2578692 L79.8963855,48.7288136 L80.3771084,48.4067797 L80.4228916,46.5435835 L79.8506024,44.9794189 L80.0108434,42.909201 L79.4614458,42.1961259 L80.1253012,41.5520581 L80.4,41.6440678 L82.5975904,39.7808717 L82.8722892,39.0677966 L83.6277108,38.3317191 L85.4819277,37.1355932 L86.0771084,37.1355932 L88.6409639,36.5835351 L90.6554217,35.6404358 L91.0216867,36.1004843 L91.2506024,35.7554479 L91.0903614,35.0193705 L92.2349398,33.248184 L92.0060241,32.3510896 L91.4795181,31.6150121 L92.0746988,31.4309927 L92.6240964,31.4539952 L93.5855422,29.9358354 L93.7,29.8438257 L93.7457831,29.6598063 L94.3409639,28.9467312 L94.5012048,27.9576271 L94.1349398,27.4285714 L94.8674699,26.8995157 L95.7831325,26.0024213 L95.760241,24.8753027 L95.760241,24.8753027 L94.2951807,24.8523002 L93.7915663,25.4273608 L93.0361446,26.0254237 L90.2204819,24.9213075 L89.5566265,24.1162228 L88.8012048,24.2772397 L87.153012,24.1392252 L85.7108434,24.8292978 L85.3445783,26.4854722 L84.4060241,26.7154964 L83.9939759,27.3135593 L82.986747,27.1755448 L82.4144578,27.5895884 L82.3,27.2675545 L80.8807229,26.9225182 L79.186747,27.3595642 L78.5457831,27.9346247 L77.7216867,28.1876513 L77.0578313,27.8656174 L76.6915663,27.4285714 L76.2566265,27.3825666 L75.7072289,26.3244552 L75.4096386,26.2784504 L74.7,25.5423729 L74.5855422,25.220339 L74.0590361,24.9903148 L73.3036145,24.1162228 L73.1433735,23.0581114 L72.5710843,22.1840194 L71.6783133,22 L71.3349398,22.9661017 L71.6325301,22.7360775 L70.4192771,24.18523 L69.9156627,26.1404358 L70.7626506,25.8644068 L69.6180723,26.5544794 L69.9156627,27.5895884 L69.2975904,28.3026634 L69.7554217,30.4878935 L69.686747,31.2239709 L70.5337349,31.6150121 L71.5180723,32.9261501 L70.8084337,32.8801453 L71.1518072,34.3292978 L70.9,34.1912833 L70.5337349,34.4673123 L70.5337349,35.0653753 L71.4036145,36.2845036 L72.113253,36.4455206 L72.4795181,37.0205811 L71.3120482,36.7445521 L71.3578313,37.8026634 L72.6168675,37.8486683 L74.6313253,39.251816 L74.5855422,39.8958838 L75.1578313,40.3559322 L75.2493976,41.0690073 L75.0662651,42.2651332 L74.9060241,42.6331719 L74.4481928,43.0242131 L74.6313253,43.5532688 L75.226506,43.8292978 L75.2951807,45.6004843 L75.5698795,46.3825666 L76.073494,47.3946731 L75.5927711,47.8317191 L75.9361446,48.8668281 L75.7301205,49.3268765 L76.1879518,49.901937 L77.2180723,49.188862 L77.7674699,49.3958838 L77.9506024,50.3619855 L78.5457831,49.6719128 L79.4385542,49.2118644 L79.4614458,49.2578692 L79.4614458,49.2578692 Z" id="ID.KB" fill="#FFFFFF" sketch:type="MSShapeGroup"></path>
                <path d="M48.9060241,65.5932203 L48.5855422,65.2021792 L48.539759,65.2711864 L48.9060241,65.5932203 L48.9060241,65.5932203 Z M43.8012048,59.9346247 L43.6409639,60.1186441 L43.3662651,60.3256659 L43.160241,60.4866828 L43,60.5556901 L43.0457831,60.5786925 L43.4120482,60.7627119 L43.5722892,61.1307506 L44.8084337,62.4188862 L44.7855422,62.6949153 L45.5180723,63.7070218 L46.0674699,64.0750605 L46.2277108,64.6501211 L46.960241,65.2711864 L47.4638554,66.2602906 L48.1506024,66.2602906 L48.173494,63.8910412 L50.0506024,65.2251816 L50.6686747,65.3861985 L50.6228916,64.3050847 L50.8746988,64.2820823 L51.1493976,63.5230024 L52.0879518,64.7421308 L53.2096386,65.8002421 L53.2096386,66.0302663 L53.8506024,64.374092 L53.8048193,64.0060533 L54.4,60.5096852 L54.239759,59.7966102 L54.3771084,57.7723971 L54.1710843,56.2772397 L54.1710843,56.2772397 L53.0722892,55.7021792 L53.0493976,55.2191283 L51.6987952,54 L51.3325301,54.874092 L50.8975904,55.0121065 L50.5084337,55.8171913 L49.9361446,56.4382567 L49.2722892,56.622276 L46.5939759,57.8644068 L46.3421687,59.1525424 L46.5481928,60.3026634 L45.3349398,60.716707 L44.0759036,60.0956416 L43.8012048,59.9346247 L43.8012048,59.9346247 Z" id="ID.LA" fill="#FFFFFF" sketch:type="MSShapeGroup"></path>
                <path d="M35,49.0266344 L35.1144578,49.1876513 L35.8012048,50.1077482 L35.8240964,50.590799 L36.7626506,50.751816 L37.1746988,51.9709443 L37.7012048,52.3619855 L38.5481928,52.1549637 L39.5325301,52.5920097 L39.4409639,53.535109 L37.953012,54.7082324 L37.6096386,54.846247 L38.4108434,55.7893462 L39.3036145,56.0883777 L39.9216867,55.996368 L40.1048193,56.3414044 L40.3108434,57.3765133 L41.2493976,57.7675545 L42.1879518,58.0435835 L42.9662651,60.3208232 L42.9891566,60.4358354 L43.2638554,60.5968523 L44.5228916,61.2179177 L45.7361446,60.8038741 L45.5301205,59.653753 L45.7819277,58.3656174 L48.460241,57.1234867 L49.1240964,56.9394673 L49.6963855,56.3184019 L50.0855422,55.5133172 L50.5204819,55.3753027 L50.886747,54.5012107 L52.2373494,55.720339 L52.260241,56.2033898 L53.3590361,56.7784504 L53.3819277,56.6864407 L53.6108434,55.9043584 L53.9542169,55.3753027 L53.9542169,54.7772397 L53.5650602,54.4322034 L53.7710843,52.7990315 L54.3891566,51.9479419 L54.686747,50.9818402 L54.5951807,50.153753 L53.8626506,49.9697337 L53.4506024,49.4636804 L53.4963855,48.7046005 L52.8096386,48.2675545 L52.6036145,47.8535109 L50.9325301,46.5653753 L49.8337349,46.6803874 L49.1240964,46.2663438 L48.5289157,46.8414044 L47.4301205,48.3135593 L48.1626506,47.7615012 L48.2542169,46.5423729 L48.7807229,45.9903148 L49.0554217,45.3232446 L48.7349398,44.6561743 L47.5216867,43.8050847 L47.1096386,43.9430993 L47.3843373,43.1380145 L47.3614458,43.1150121 L46.6060241,43 L46.4457831,43.3680387 L45.8963855,43.6440678 L44.1566265,43.4600484 L42.3939759,44.4261501 L42.4626506,45.7602906 L41.9590361,45.9903148 L41.913253,46.8874092 L40.7915663,45.6682809 L40.539759,46.1513317 L40.6771084,46.7033898 L39.9216867,46.7033898 L39.0060241,47.2094431 L38.639759,47.8075061 L36.9,48.7276029 L35.9843373,48.2215496 L35.846988,48.4745763 L35.2060241,48.7966102 L35,49.0266344 L35,49.0266344 Z" id="ID.SL" fill="#FFFFFF" sketch:type="MSShapeGroup"></path>
                <path d="M59.3554217,50.6719128 L59.6072289,50.2348668 L59.0120482,49.9358354 L58.6457831,50.3268765 L59.3554217,50.6719128 L59.3554217,50.6719128 Z M60.5,49.9588378 L60.2710843,49.6138015 L60.2024096,49.8898305 L60.5,49.9588378 L60.5,49.9588378 Z M62.4915663,49.8208232 L61.7361446,49.8668281 L62.0566265,50.2118644 L62.4915663,49.8208232 L62.4915663,49.8208232 Z M64.3,47.9806295 L63.6361446,48.003632 L63.246988,48.7397094 L63.0409639,49.7978208 L62.7433735,50.0508475 L63.1783133,51.2469734 L62.9951807,51.5 L63.3843373,51.6380145 L64.1626506,51.3389831 L64.3228916,50.8099274 L64.7807229,51.3619855 L64.8493976,51.8680387 L65.3072289,51.7990315 L65.3987952,51.4309927 L65.9939759,51.2699758 L66.4518072,49.6598063 L66.3373494,49.153753 L65.9481928,48.6707022 L64.3,47.9806295 L64.3,47.9806295 Z M54.6626506,42 L53.8843373,42.3450363 L54.0216867,43.1961259 L54.3192771,43.7021792 L53.746988,43.5411622 L53.5409639,43.2191283 L53.746988,43.0121065 L53.3578313,42.2760291 L52.6024096,42.4140436 L51.9614458,43.1731235 L52.2590361,43.4031477 L51.7554217,44.1622276 L51.1831325,44.4152542 L51,45.3353511 L51.7783133,45.6343826 L53.060241,45.2433414 L53.2662651,45.5193705 L53.953012,45.6343826 L54.1819277,45.8414044 L54.3192771,47.1065375 L54.8686747,47.6815981 L54.639759,48.4176755 L55.1204819,49.5677966 L56.5855422,50.027845 L57.1349398,50.3268765 L57.5698795,50.7869249 L58.7373494,50.9709443 L58.6457831,50.5108959 L58.073494,50.0048426 L58.4626506,48.8317191 L59.1036145,48.1876513 L58.5313253,47.8886199 L57.1120482,47.5895884 L56.1963855,45.8874092 L56.1048193,44.18523 L55.4409639,43.0581114 L55.1891566,42.2760291 L54.6626506,42 L54.6626506,42 Z" id="ID.BB" fill="#FFFFFF" sketch:type="MSShapeGroup"></path>
                <path d="M100.26506,82.3813559 L99.7385542,82.657385 L100.150602,83.094431 L100.471084,82.9104116 L100.26506,82.3813559 L100.26506,82.3813559 Z M100.127711,79.5520581 L99.326506,79.1610169 L98.3421687,79 L97.953012,79.3910412 L96.9228916,79.6670702 L95.1144578,79.0920097 L95,79.8050847 L95.3433735,80.472155 L95.7554217,80.8401937 L96.5337349,80.8631961 L97.8614458,81.8753027 L97.8385542,83.1864407 L98.0216867,83.37046 L98.5024096,83.2554479 L98.7542169,82.5193705 L99.2578313,81.9443099 L100.493976,81.4152542 L101.089157,80.7021792 L100.127711,79.5520581 L100.127711,79.5520581 Z" id="ID.BA" fill="#FFFFFF" sketch:type="MSShapeGroup"></path>
                <path d="M96.5879518,73.9588378 L96.1759036,73.7978208 L95.9927711,73.8898305 L96.5879518,73.9588378 L96.5879518,73.9588378 Z M102.883133,73.8208232 L102.104819,73.9818402 L102.562651,74.2348668 L102.883133,73.8208232 L102.883133,73.8208232 Z M95.4662651,73.8668281 L94.9855422,73.4297821 L94.939759,73.9358354 L95.4662651,73.8668281 L95.4662651,73.8668281 Z M93.5433735,72.440678 L91.2313253,72.5326877 L90.8421687,72.4636804 L88.9650602,72.4636804 L87.8433735,72.6016949 L87.0650602,73.4527845 L87.1795181,74.027845 L87.6373494,74.027845 L89.1481928,74.4188862 L89.2626506,74.0508475 L89.8578313,74.3498789 L91.2313253,74.4418886 L91.4144578,73.9818402 L91.8493976,73.751816 L92.8795181,73.8438257 L92.8795181,73.6598063 L93.4518072,73.2457627 L94.1614458,73.0157385 L93.5433735,72.440678 L93.5433735,72.440678 Z M100.410843,72.1876513 L99.7927711,72.3486683 L99.9987952,72.9237288 L100.204819,72.716707 L101.349398,72.7397094 L100.822892,72.2336562 L100.410843,72.1876513 L100.410843,72.1876513 Z M82.1204819,71.6125908 L81.6855422,72.9007264 L81.5710843,74.0508475 L80.7927711,74.8789346 L79.7168675,74.5338983 L79.6253012,74.625908 L79.3963855,77.1101695 L79.7626506,77.248184 L79.9457831,77.846247 L79.7626506,78.4213075 L79.0987952,78.6283293 L78.2289157,79.3184019 L78,80.031477 L78.2518072,80.1694915 L78.8012048,79.9394673 L79.0987952,80.3535109 L79.5108434,80.2154964 L80.7927711,80.62954 L81.0216867,80.5375303 L81.6626506,80.8595642 L82.1204819,80.2384988 L82.6927711,80.4225182 L83.013253,80.3305085 L84.2036145,80.5835351 L85.3481928,80.9745763 L87.2710843,80.8825666 L87.7746988,80.905569 L88.0493976,80.5835351 L89.8349398,80.5835351 L91.3686747,81.5496368 L92.0325301,81.5956416 L92.2385542,81.8946731 L93.4518072,82.3547215 L94.2301205,82.216707 L94.8253012,82.5157385 L94.8481928,82.6997579 L95.8325301,83.1368039 L95.8325301,82.5157385 L95.1457831,82.1707022 L94.9626506,81.6876513 L94.8481928,80.7675545 L95.3746988,78.8353511 L95.4662651,77.5932203 L94.6421687,77.1101695 L93.5433735,76.5811138 L92.9481928,76.972155 L92.2385542,77.2251816 L90.6819277,77.2021792 L89.7891566,77.5702179 L88.2325301,76.7651332 L87.2253012,76.1210654 L87.5,75.4309927 L87.5686747,74.4418886 L87.0192771,74.5569007 L86.973494,74.1198547 L86.653012,73.5677966 L86.5843373,72.3946731 L86.1493976,72.6246973 L85.9433735,72.4176755 L84.4325301,72.6246973 L84.0204819,72.5326877 L83.6084337,71.9116223 L82.7614458,72.003632 L82.2120482,71.7506053 L82.1204819,71.6125908 L82.1204819,71.6125908 Z M87.5686747,66 L86.9048193,66.3220339 L86.9963855,66.6210654 L87.5686747,66.598063 L87.5686747,66 L87.5686747,66 Z" id="ID.JI" fill="#FFFFFF" sketch:type="MSShapeGroup"></path>
                <path d="M106.278313,53.6743341 L106.53012,52.4322034 L106.003614,53.0072639 L106.278313,53.6743341 L106.278313,53.6743341 Z M104.859036,55.9285714 L105.820482,55.1464891 L105.728916,54.8474576 L105.683133,52.1791768 L105.79759,51.4200969 L104.996386,51.9491525 L104.584337,52.9152542 L104.401205,54.2033898 L104.675904,54.7554479 L104.515663,55.9745763 L104.859036,55.9285714 L104.859036,55.9285714 Z M103.119277,41.2300242 L103.16506,41 L101.814458,41.3450363 L101.493976,43.8062954 L101.219277,44.4273608 L101.310843,44.6803874 L100.418072,45.5774818 L99.0445783,46.0375303 L98.953012,47.3716707 L98.7240964,47.6476998 L98.2891566,48.6138015 L97.6253012,49.1428571 L97.2819277,49.2348668 L96.8927711,50.1319613 L96,52.5702179 L96.2975904,52.7082324 L96.8698795,52.8692494 L96.9614458,52.2711864 L97.213253,52.0641646 L97.053012,52.8002421 L97.4650602,55.8135593 L97.3963855,56.7106538 L102.226506,54.5024213 L103.760241,53.5823245 L104.080723,53.5823245 L104.355422,53.1682809 L104.424096,52.6622276 L105.248193,51.098063 L105.751807,50.8910412 L105.042169,49.7179177 L105.179518,49.3728814 L105.774699,50.1319613 L105.889157,50.0399516 L106.507229,47.716707 L106.072289,47.440678 L106.36988,47.3256659 L107.239759,47.3716707 L107.422892,46.5205811 L106.53012,46.2445521 L104.698795,46.0835351 L104.126506,46.3825666 L103.874699,46.3135593 L103.691566,45.5084746 L103.737349,44.9794189 L103.393976,43.9443099 L103.393976,43.2542373 L102.56988,41.7590799 L102.981928,41.2530266 L103.119277,41.2300242 L103.119277,41.2300242 Z" id="ID.KS" fill="#FFFFFF" sketch:type="MSShapeGroup"></path>
                <path d="M135.748193,94.7336562 L136.206024,94.6416465 L137.556627,93.9975787 L138.540964,92.9394673 L138.518072,91.9733656 L136.709639,93.5375303 L135.496386,94.066586 L135.473494,94.5726392 L135.748193,94.7336562 L135.748193,94.7336562 Z M131.375904,91.9733656 L130.162651,92.6404358 L130.277108,92.9164649 L130.895181,92.9394673 L131.673494,92.1803874 L131.375904,91.9733656 L131.375904,91.9733656 Z M138.975904,90.7542373 L139.227711,90.5012107 L138.655422,90.5242131 L138.975904,90.7542373 L138.975904,90.7542373 Z M122.40241,85.9237288 L121.326506,86.0617433 L119.655422,85.9237288 L117.251807,86.590799 L117,87.027845 L119.19759,88.3619855 L119.289157,88.2009685 L120.525301,88.4079903 L121.051807,89.0290557 L121.601205,89.2360775 L122.150602,90.1791768 L122.677108,90.7772397 L123.821687,91.0302663 L124.187952,91.283293 L124.714458,90.8232446 L125.424096,90.7082324 L126.156627,89.8341404 L126.133735,89.6271186 L125.515663,89.0060533 L125.012048,88.0399516 L124.371084,87.464891 L123.821687,87.6719128 L123.546988,87.5108959 L122.654217,86.3837772 L122.40241,85.9237288 L122.40241,85.9237288 Z M146.827711,84.3135593 L146.804819,83.8305085 L146.140964,84.0145278 L145.522892,84.4515738 L144.401205,84.9116223 L143.622892,86.6138015 L143.279518,86.6368039 L143.119277,86.0387409 L142.707229,86.2687651 L141.860241,86.0617433 L140.418072,87.3498789 L139.731325,89.2130751 L139.8,89.8341404 L140.189157,89.6731235 L140.051807,90.3401937 L139.433735,90.5932203 L139.021687,91.6053269 L140.715663,91.5823245 L141.287952,91.1912833 L143.920482,90.3631961 L145.156627,89.1440678 L145.431325,88.9600484 L146.072289,88.1089588 L146.781928,87.5569007 L146.850602,87.1428571 L147.262651,86.6368039 L146.873494,85.0956416 L147.83494,84.9346247 L147.789157,83.968523 L147.560241,83.8535109 L146.827711,84.3135593 L146.827711,84.3135593 Z M121.051807,81.9673123 L121.09759,82.7723971 L121.624096,81.783293 L121.051807,81.9673123 L121.051807,81.9673123 Z M120.090361,80.9552058 L119.838554,80.748184 L119.609639,81.4612591 L119.563855,82.4273608 L119.93012,82.3583535 L120.159036,81.7142857 L120.639759,81.4382567 L120.479518,80.9782082 L120.090361,80.9552058 L120.090361,80.9552058 Z M138.403614,80.7021792 L137.075904,81.1622276 L136.915663,81.5532688 L138.403614,80.7021792 L138.403614,80.7021792 Z M139.06747,79.6440678 L138.403614,79.6440678 L137.785542,80.1271186 L137.671084,80.472155 L138.792771,80.5411622 L139.204819,80.3341404 L139.06747,79.6440678 L139.06747,79.6440678 Z M142.295181,79.6440678 L141.608434,79.2760291 L140.486747,79.9891041 L140.486747,80.3571429 L140.212048,80.311138 L140.440964,79.6670702 L139.433735,80.035109 L139.983133,80.1271186 L138.655422,81.2312349 L140.189157,81.4612591 L140.738554,80.5871671 L141.173494,80.472155 L142.295181,79.6440678 L142.295181,79.6440678 Z M143.668675,80.4031477 L143.737349,79.437046 L143.004819,80.3801453 L142.775904,79.9891041 L142.043373,80.8171913 L142.592771,80.6791768 L142.981928,81.3922518 L143.485542,80.8861985 L143.668675,80.4031477 L143.668675,80.4031477 Z M145.431325,79 L144.515663,79.7590799 L144.904819,79.7820823 L144.263855,80.8401937 L145.660241,80.5641646 L148.086747,80.2421308 L148.224096,79.5750605 L148.063855,79.2300242 L146.003614,79.1840194 L145.568675,79.437046 L145.431325,79 L145.431325,79 Z M137.60241,79.1610169 L136.572289,79.1840194 L136.389157,79.437046 L137.373494,79.4830508 L136.045783,80.4261501 L135.038554,80.9322034 L134.786747,81.6682809 L133.962651,81.8292978 L132.749398,80.8631961 L130.666265,80.9552058 L129.498795,81.4842615 L129.086747,80.9552058 L126.79759,80.0811138 L126.454217,80.1271186 L125.195181,79.8280872 L124.187952,79.7820823 L123.226506,80.5181598 L122.7,80.7711864 L122.104819,80.5871671 L122.081928,81.0472155 L121.692771,81.622276 L121.646988,82.4273608 L122.059036,82.8184019 L122.448193,82.8414044 L123.501205,82.6343826 L124.16506,82.933414 L125.561446,82.7723971 L125.744578,83.0254237 L126.339759,83.1404358 L126.751807,82.933414 L127.003614,83.4164649 L127.438554,83.5544794 L128.10241,83.3934625 L129.155422,83.4394673 L129.338554,82.8874092 L129.979518,82.8644068 L131.398795,83.2554479 L132.49759,82.7723971 L133.046988,82.3813559 L135.038554,82.2663438 L135.313253,82.0363196 L136.091566,81.8523002 L136.755422,81.3692494 L136.686747,80.7251816 L136.938554,80.8631961 L137.121687,80.311138 L137.739759,80.0581114 L137.60241,79.1610169 L137.60241,79.1610169 Z" id="ID.NT" fill="#FFFFFF" sketch:type="MSShapeGroup"></path>
                <path d="M126.318072,73.4661017 L125.883133,73.098063 L125.906024,73.9031477 L126.409639,73.7881356 L126.318072,73.4661017 L126.318072,73.4661017 Z M125.26506,70.0617433 L125.562651,68.3825666 L125.7,68.0375303 L125.26506,66.5193705 L125.104819,68.6815981 L125.219277,68.9576271 L125.26506,70.0617433 L125.26506,70.0617433 Z M123.342169,44.598063 L123.090361,45.1041162 L122.19759,45.8401937 L122.289157,46.6912833 L122.586747,47.0823245 L122.563855,47.8184019 L122.792771,48.7615012 L122.495181,49.0145278 L121.442169,49.12954 L121.693976,51.2687651 L120.984337,51.5447942 L121.16747,53.2239709 L121.190361,53.2469734 L121.007229,54.2590799 L121.121687,54.972155 L121.533735,56.283293 L121.396386,59.3196126 L120.938554,61.2978208 L120.29759,62.4709443 L120.137349,62.9539952 L120,64.0121065 L120.274699,65.0012107 L121.304819,65.2542373 L121.350602,65.5992736 L121.945783,65.7142857 L122.63253,65.0242131 L123.708434,65.0932203 L124.853012,64.6561743 L125.173494,65.2542373 L125.40241,65.2542373 L124.555422,62.6089588 L124.807229,61.7348668 L125.310843,60.6997579 L125.608434,59.779661 L125.26506,58.5145278 L125.40241,57.0653753 L125.287952,56.6973366 L125.333735,55.7312349 L125.745783,54.2590799 L125.654217,51.6598063 L125.173494,51.4067797 L124.807229,50.2566586 L126.753012,48.6924939 L128.836145,48.5774818 L129.20241,49.12954 L128.744578,49.4285714 L129.20241,49.9576271 L129.20241,49.9806295 L129.591566,49.7736077 L130.140964,49.7966102 L131.10241,50.6016949 L131.4,50.5326877 L131.720482,50.3256659 L131.812048,50.2566586 L132.681928,49.2215496 L132.704819,48.6234867 L132.498795,48.3014528 L131.560241,47.5883777 L131.285542,47.220339 L127.920482,46.2082324 L126.707229,44.9891041 L126.112048,44 L124.486747,44.0230024 L123.525301,44.5060533 L123.342169,44.598063 L123.342169,44.598063 Z" id="ID.SE" fill="#FFFFFF" sketch:type="MSShapeGroup"></path>
                <path d="M123.562651,44.3256659 L123.425301,43.9346247 L123.539759,43.405569 L122.875904,42.1174334 L122.578313,41.1513317 L122.006024,40.8983051 L122.028916,40.2082324 L122.349398,39.9782082 L122.257831,38 L122.120482,38.0920097 L121.639759,39.5871671 L121.410843,39.7021792 L120.884337,41.2663438 L120.907229,42.8535109 L121.159036,43.7276029 L121.044578,44.3486683 L120.403614,44.6246973 L119.922892,46.027845 L119.922892,47.1319613 L118.572289,48.2590799 L118.114458,48.4661017 L118,49.0641646 L118.251807,49.3401937 L118.457831,50.0532688 L118.320482,50.6283293 L118.068675,50.5823245 L118.778313,53.4346247 L119.16747,53.0895884 L120.083133,52.9745763 L120.76988,52.6525424 L121.456627,52.9515738 L121.479518,52.9515738 L121.296386,51.2723971 L122.006024,50.996368 L121.754217,48.8571429 L122.807229,48.7421308 L123.104819,48.4891041 L122.875904,47.5460048 L122.898795,46.8099274 L122.601205,46.4188862 L122.509639,45.5677966 L123.40241,44.8317191 L123.654217,44.3256659 L123.562651,44.3256659 L123.562651,44.3256659 Z" id="ID.SR" fill="#FFFFFF" sketch:type="MSShapeGroup"></path>
                <path d="M48.1120482,35.098063 L47.860241,34.8680387 L46.8072289,35.1210654 L46.646988,35.4661017 L47.1048193,36.1331719 L47.1506024,36.5932203 L47.4710843,36.1101695 L47.7457831,36.3171913 L48.3638554,35.4661017 L48.1120482,35.098063 L48.1120482,35.098063 Z M47.8373494,34.5920097 L47.7686747,34.3849879 L47.4939759,34.4309927 L47.8373494,34.5920097 L47.8373494,34.5920097 Z M48.3180723,32.8208232 L47.5855422,34.062954 L48.0204819,34.3849879 L48.9361446,34.0399516 L50.0349398,34.7300242 L49.9433735,34.4769976 L50.4012048,34.4539952 L49.6,33.6489104 L49.3024096,33.9709443 L48.3180723,32.8208232 L48.3180723,32.8208232 Z M47.5855422,32.0387409 L47.3795181,32.1997579 L47.6771084,32.590799 L47.5855422,32.0387409 L47.5855422,32.0387409 Z M47.9289157,31.5556901 L48.7987952,32.6598063 L48.8216867,32.4527845 L47.9289157,31.5556901 L47.9289157,31.5556901 Z M46.8072289,29.1864407 L46.7156627,29.0484262 L46.7614458,29.3244552 L46.8072289,29.1864407 L46.8072289,29.1864407 Z M49.0963855,28.7953995 L48.9819277,28.6343826 L48.9590361,28.7033898 L49.0963855,28.7953995 L49.0963855,28.7953995 Z M48.4554217,28.4733656 L47.9060241,28.496368 L47.9060241,28.6343826 L48.4554217,28.4733656 L48.4554217,28.4733656 Z M46.7614458,28.4273608 L46.5554217,28.8184019 L46.646988,28.8874092 L46.7614458,28.4273608 L46.7614458,28.4273608 Z M45.0903614,28.496368 L44.8614458,28.059322 L44.4722892,27.8983051 L45.0903614,28.496368 L45.0903614,28.496368 Z M42.7096386,29.1404358 L42.9614458,28.6803874 L42.1831325,27.9443099 L42.5722892,29.2094431 L42.7096386,29.1404358 L42.7096386,29.1404358 Z M44.586747,28.5193705 L44.4722892,28.1053269 L44.1975904,28.3123487 L44.586747,28.5193705 L44.586747,28.5193705 Z M46.2349398,27.8753027 L45.8457831,27.5992736 L46.1662651,28.2433414 L46.6927711,28.0363196 L46.2349398,27.8753027 L46.2349398,27.8753027 Z M44.9072289,27.18523 L44.6554217,27.3922518 L45.2048193,27.4382567 L44.9072289,27.18523 L44.9072289,27.18523 Z M49.5313253,27.4612591 L49.3253012,27.0472155 L49.2795181,27.0932203 L49.5313253,27.4612591 L49.5313253,27.4612591 Z M42.5951807,27.1392252 L42,26.7021792 L42.1831325,27.2082324 L42.5951807,27.1392252 L42.5951807,27.1392252 Z M46.1204819,26.4261501 L45.0903614,26.5181598 L45.1361446,27.1622276 L45.6168675,27.3002421 L46.1204819,26.4261501 L46.1204819,26.4261501 Z M48.2951807,26.1041162 L46.6240964,26.6101695 L46.7156627,27.2082324 L47.6084337,26.8861985 L47.4939759,27.3692494 L48.1807229,28.1743341 L48.3409639,28.1513317 L48.6614458,27.0472155 L48.2951807,26.1041162 L48.2951807,26.1041162 Z M56.2614458,17.4322034 L56.1240964,16.9491525 L56.0554217,16.972155 L56.2614458,17.4322034 L56.2614458,17.4322034 Z M69.1493976,16.7881356 L69.3783133,16.4891041 L69.3783133,16.0520581 L69.1493976,16.7881356 L69.1493976,16.7881356 Z M63.7927711,16.0520581 L63.9987952,16.0290557 L63.7012048,15.8680387 L63.7927711,16.0520581 L63.7927711,16.0520581 Z M53.926506,16.0750605 L53.6060241,16.0060533 L53.5831325,16.7881356 L54.1096386,16.4891041 L53.926506,16.0750605 L53.926506,16.0750605 Z M56.1698795,14.6719128 L56.0096386,14.7869249 L56.2843373,15.2929782 L56.3987952,14.9249395 L56.1698795,14.6719128 L56.1698795,14.6719128 Z M66.2192771,9.81840194 L65.7843373,8.92130751 L64.639759,10.2324455 L66.0590361,11.4745763 L66.1048193,11.7736077 L65.2578313,12.0266344 L65.7614458,12.2566586 L66.6542169,11.3825666 L66.6542169,10.3244552 L66.2192771,9.81840194 L66.2192771,9.81840194 Z M64.5253012,6.41404358 L64.5024096,6 L64.4337349,6.16101695 L64.5253012,6.41404358 L64.5253012,6.41404358 Z" id="ID.KR" fill="#FFFFFF" sketch:type="MSShapeGroup"></path>
                <path d="M139.568675,28.5520581 L139.110843,28.3910412 L138.698795,28.9430993 L138.149398,29.0121065 L137.325301,28.3910412 L135.104819,28 L135.104819,28 L133.342169,28.3220339 L132.746988,28.598063 L130.892771,28.9891041 L130.366265,29.7021792 L130,29.9322034 L130.892771,30.6682809 L130.86988,31.1743341 L130.892771,31.1743341 L131.716867,31.0363196 L131.831325,30.7602906 L132.63253,30.8292978 L133.06747,31.3583535 L134.09759,31.2663438 L134.349398,31.0823245 L135.768675,30.9903148 L139.271084,31.0133172 L141.331325,32.0484262 L141.4,32.0254237 L141.583133,31.0133172 L141.491566,30.6452785 L140.324096,29.6561743 L140.118072,29.0811138 L139.568675,28.5520581 L139.568675,28.5520581 L139.568675,28.5520581 Z" id="ID.GO" fill="#FFFFFF" sketch:type="MSShapeGroup"></path>
                <path d="M47.939759,43.566586 L47.573494,42.4164649 L47.5963855,41.5653753 L47.253012,39.6101695 L46.9554217,39.6101695 L45.1698795,39.2881356 L44.7807229,39.4261501 L44.5289157,39.8401937 L43.2240964,38.7130751 L42.6060241,38 L42.6060241,38 L39.4698795,38.2530266 L38.439759,39.4261501 L37.226506,39.472155 L36.4710843,38.6210654 L35.5325301,38.7590799 L34.8686747,39.4261501 L34.3192771,39.6331719 L34.3879518,39.7941889 L34.5481928,40.5992736 L33.7927711,41.3353511 L33.8843373,41.657385 L33.6325301,42.4854722 L32.8084337,43.3825666 L31.5722892,43.5205811 L31,43.405569 L31.0686747,44.3026634 L31.8698795,46.0738499 L32.0301205,46.7409201 L32.4650602,46.4188862 L32.9,46.7409201 L33.2433735,47.7300242 L33.9759036,48.6501211 L34.8686747,49.2711864 L35.5325301,49.4322034 L35.5783133,49.4782082 L35.7843373,49.248184 L36.4253012,48.9261501 L36.5626506,48.6731235 L37.4783133,49.1791768 L39.2180723,48.2590799 L39.5843373,47.6610169 L40.5,47.1549637 L41.2554217,47.1549637 L41.1180723,46.6029056 L41.3698795,46.1198547 L42.4915663,47.3389831 L42.5373494,46.4418886 L43.0409639,46.2118644 L42.9722892,44.877724 L44.7349398,43.9116223 L46.4746988,44.0956416 L47.0240964,43.8196126 L47.1843373,43.4515738 L47.939759,43.566586 L47.939759,43.566586 L47.939759,43.566586 Z" id="ID.JA" fill="#FFFFFF" sketch:type="MSShapeGroup"></path>
                <path d="M102.722892,41.0762712 L103.272289,40.3171913 L103.318072,39.1440678 L102.768675,38.9600484 L101.646988,38.0859564 L101.303614,36.7058111 L100.983133,35.9007264 L100.708434,34.6815981 L100.731325,34.2675545 L101.074699,32.933414 L99.8614458,33.6004843 L99.3120482,34.0375303 L99.1975904,33.5084746 L99.2662651,32.0823245 L99.1289157,31.2542373 L99.4951807,29.1380145 L99.3120482,29 L97.686747,29.5060533 L96.2674699,29.6900726 L95.4433735,29.4140436 L94.573494,29.3680387 L93.4289157,29.8050847 L93.2915663,29.874092 L93.1771084,29.9661017 L92.2156627,31.4842615 L91.6662651,31.4612591 L91.0710843,31.6452785 L91.5975904,32.3813559 L91.826506,33.2784504 L90.6819277,35.0496368 L90.8421687,35.7857143 L90.613253,36.1307506 L90.246988,35.6707022 L88.2325301,36.6138015 L85.6686747,37.1658596 L85.073494,37.1658596 L83.2192771,38.3619855 L82.4638554,39.098063 L82.1891566,39.811138 L79.9915663,41.6743341 L79.7168675,41.5823245 L79.053012,42.2263923 L79.6024096,42.9394673 L79.4421687,45.0096852 L80.0144578,46.5738499 L79.9686747,48.437046 L79.4879518,48.7590799 L79.053012,49.2881356 L79.0759036,49.3801453 L78.1144578,49.8401937 L78,50.0932203 L78.9385542,50.4612591 L79.5337349,50.2772397 L80.7240964,49.5871671 L81.8,49.7251816 L81.8686747,50.0012107 L82.4638554,49.7251816 L83.3108434,50.0472155 L83.2421687,51.0133172 L83.3337349,51.9794189 L83.1963855,53.0145278 L83.6084337,53.1525424 L84.6843373,52.094431 L85.1192771,51.7953995 L86.0578313,51.8414044 L86.6987952,52.3934625 L87.4313253,52.1174334 L89.2168675,50.8523002 L89.3313253,49.4951574 L89.6289157,50.18523 L90.8192771,51.4733656 L91.6204819,50.8983051 L92.0554217,50.8983051 L92.2614458,51.3813559 L92.1927711,52.5084746 L93.0855422,52.5084746 L94.2301205,51.933414 L94.5963855,51.1053269 L94.939759,52.094431 L95.260241,51.9564165 L95.4433735,52.3244552 L95.5349398,52.3934625 L96.4277108,49.9552058 L96.8168675,49.0581114 L97.160241,48.9661017 L97.8240964,48.437046 L98.2590361,47.4709443 L98.4879518,47.1949153 L98.5795181,45.8607748 L99.953012,45.4007264 L100.845783,44.503632 L100.754217,44.2506053 L101.028916,43.62954 L101.349398,41.1682809 L102.7,40.8232446 L102.654217,41.0532688 L102.722892,41.0762712 L102.722892,41.0762712 Z" id="ID.KT" fill="#FFFFFF" sketch:type="MSShapeGroup"></path>
                <path d="M187.238554,52.3716707 L187.307229,52.9007264 L187.375904,52.8317191 L187.238554,52.3716707 L187.238554,52.3716707 Z M182.042169,48.0242131 L182.339759,47.7941889 L182.248193,47.7941889 L182.042169,48.0242131 L182.042169,48.0242131 Z M191.70241,46.8280872 L191.793976,47.2421308 L192.022892,46.9891041 L191.70241,46.8280872 L191.70241,46.8280872 Z M196.784337,46.874092 L196.875904,46.6900726 L196.601205,46.5520581 L196.784337,46.874092 L196.784337,46.874092 Z M195.914458,45.1949153 L196.143373,44.4588378 L195.914458,44.3898305 L195.914458,45.1949153 L195.914458,45.1949153 Z M195.021687,43.9067797 L195.227711,42.8946731 L194.93012,43.377724 L195.021687,43.9067797 L195.021687,43.9067797 Z M176.06747,42.6186441 L175.380723,42.8486683 L174.968675,42.8026634 L173,43.5847458 L173.618072,44.251816 L174.671084,44.4818402 L174.854217,44.7118644 L176.090361,44.4128329 L176.410843,44.1368039 L176.296386,43.1016949 L176.06747,42.6186441 L176.06747,42.6186441 Z M174.144578,39.6973366 L173.206024,39.6743341 L173.160241,39.8813559 L174.144578,39.6973366 L174.144578,39.6973366 Z M178.99759,38.2941889 L177.578313,38.6392252 L177.784337,38.846247 L178.059036,39.9733656 L179.203614,40.6634383 L179.478313,39.9733656 L179.455422,38.2251816 L178.99759,38.2941889 L178.99759,38.2941889 Z M178.539759,37.3970944 L177.120482,37.7651332 L176.593976,37.6731235 L176.548193,38.2251816 L177.440964,38.1791768 L178.150602,38.0181598 L178.539759,37.3970944 L178.539759,37.3970944 Z M177.807229,35.6719128 L177.715663,35.4878935 L176.685542,36.0169492 L177.578313,36.0399516 L177.807229,35.6719128 L177.807229,35.6719128 Z M173.846988,35.8559322 L173.86988,35.3728814 L173.618072,35.5799031 L173.846988,35.8559322 L173.846988,35.8559322 Z M197.860241,57.0641646 L199.943373,54.2578692 L195.044578,52.2336562 L195.456627,51.0605327 L195.937349,50.6234867 L197.219277,49.059322 L197.219277,49.059322 L197.219277,47.5181598 L197.059036,47.1501211 L196.418072,47.2651332 L196.303614,47.6101695 L196.53253,49.059322 L196.189157,49.1973366 L195.593976,47.2881356 L195.06747,46.6440678 L194.815663,46.1610169 L194.63253,45.1029056 L194.746988,44.5968523 L194.609639,42.8716707 L195.227711,41.7675545 L195.548193,40.6864407 L194.815663,39.5363196 L194.380723,38.4782082 L194.63253,38.0871671 L194.106024,37.1440678 L193.16747,37.1210654 L192.938554,37.3050847 L191.198795,37.1440678 L189.985542,36.062954 L188.795181,35.625908 L187.833735,35.0968523 L186.277108,35.0508475 L185.063855,35.5338983 L183.850602,36.6380145 L183.736145,36.9140436 L183.209639,37.1210654 L181.927711,37.374092 L181.904819,37.1900726 L180.531325,37.6961259 L180.577108,39.1682809 L180.073494,39.9733656 L179.661446,40.0423729 L179.089157,41.2154964 L180.096386,41.3535109 L180.256627,41.6525424 L180.943373,41.2615012 L180.668675,40.8244552 L181.240964,41.031477 L181.195181,41.2384988 L182.019277,41.3995157 L183.255422,42.1355932 L184.125301,41.7445521 L183.644578,42.3886199 L184.308434,42.6876513 L183.942169,43.1937046 L183.873494,43.6997579 L184.491566,44.9418886 L185.178313,45.2869249 L185.613253,45.8389831 L187.146988,45.5399516 L187.261446,45.9079903 L188.268675,45.7469734 L188.566265,45.9079903 L189.916867,45.562954 L191.70241,45.6779661 L193.739759,44.9418886 L193.144578,46 L193.808434,45.5859564 L193.350602,46.2300242 L193.922892,46.6440678 L192.755422,46.9661017 L193.121687,47.4491525 L192.801205,47.5411622 L192.549398,47.2421308 L192.343373,47.6561743 L191.427711,47.2651332 L191.290361,47.9322034 L191.221687,47.1271186 L191.015663,48.0702179 L190.878313,48.1622276 L190.946988,47.311138 L190.306024,46.6900726 L189.184337,47.0581114 L188.245783,48.3922518 L187.536145,48.9443099 L186.918072,48.3922518 L186.093976,48.5532688 L185.56747,48.1622276 L184.628916,48.2772397 L184.926506,48.4382567 L184.056627,48.622276 L183.850602,49.5883777 L184.468675,49.7493947 L185.773494,49.9104116 L186.3,50.2554479 L187.03253,51.1985472 L186.895181,51.3365617 L187.536145,51.7966102 L187.90241,51.566586 L187.971084,52.5786925 L188.154217,53.6138015 L187.559036,53.5217918 L187.421687,53.8208232 L187.810843,55.2699758 L187.650602,55.2009685 L188.222892,56.1440678 L188.818072,56.0060533 L189.687952,56.0750605 L190.946988,54.8559322 L190.763855,54.0508475 L191.70241,53.0617433 L191.519277,52.3716707 L192.114458,52.0266344 L192.183133,50.6694915 L192.984337,49.6113801 L193.190361,49.5423729 L193.419277,50.6924939 L192.755422,50.7154964 L192.366265,51.2905569 L191.977108,52.5786925 L192.274699,53.4297821 L192.709639,53.8668281 L192.938554,53.590799 L193.442169,54.6949153 L194.289157,54.4878935 L194.609639,54.6489104 L194.33494,55.0859564 L195.159036,55.7300242 L195.296386,54.8789346 L196.120482,55.7070218 L196.509639,55.6610169 L197.448193,55.1549637 L198.43253,55.3389831 L196.990361,55.4079903 L196.784337,56.2820823 L197.150602,56.4200969 L197.791566,57.0411622 L197.860241,57.0641646 L197.860241,57.0641646 Z M175.151807,33.5786925 L175.174699,33.4176755 L174.968675,33.279661 L175.151807,33.5786925 L175.151807,33.5786925 Z M178.493976,33.0956416 L176.937349,33.3256659 L175.884337,33.9927361 L176.50241,34.1997579 L175.907229,34.2457627 L176.662651,34.590799 L177.006024,34.5217918 L177.418072,34.8438257 L177.807229,34.7058111 L178.7,35.4878935 L179.066265,35.0738499 L177.96747,34.2917676 L177.440964,33.6016949 L177.853012,33.5096852 L179.249398,35.0968523 L179.844578,34.8898305 L180.622892,35.2348668 L180.828916,33.9697337 L180.416867,33.8547215 L179.661446,33.3486683 L178.493976,33.0956416 L178.493976,33.0956416 Z M195.891566,28.909201 L195.822892,28.748184 L195.731325,28.9322034 L195.891566,28.909201 L195.891566,28.909201 Z M180.622892,27.1380145 L180.622892,27 L180.577108,27.0460048 L180.622892,27.1380145 L180.622892,27.1380145 Z" id="ID.IB" fill="#FFFFFF" sketch:type="MSShapeGroup"></path>
                <path d="M18.073494,36.0508475 L17.4783133,35.31477 L17.2951807,36.0968523 L17.5927711,36.4188862 L18.073494,36.0508475 L18.073494,36.0508475 Z M18.439759,34.7397094 L17.6843373,33.2215496 L17.1349398,33.2215496 L18.2108434,34.9697337 L18.439759,34.7397094 L18.439759,34.7397094 Z M18.7831325,32.1864407 L19.8590361,32.6924939 L19.6759036,32.2554479 L18.7831325,32.1864407 L18.7831325,32.1864407 Z M12.5108434,24.6186441 L12.2819277,24.5496368 L12.0301205,25.0786925 L11.2975904,25.0786925 L11,25.3087167 L12.6481928,27.8389831 L13.060241,27.8389831 L13.5409639,28.3220339 L14.3192771,29.8631961 L14.5481928,29.8631961 L15.0975904,29.1271186 L15.1662651,28.0690073 L15.326506,27.7469734 L15.0975904,27.1949153 L14.8228916,27.125908 L14.113253,26.4818402 L13.2204819,25.1016949 L12.5108434,24.6186441 L12.5108434,24.6186441 Z M16.4939759,9 L15.486747,9.20702179 L15.1662651,10.8171913 L14.1819277,12.1743341 L14.8686747,13.4854722 L15.2120482,14.566586 L14.8915663,15.1186441 L15.0975904,15.6016949 L14.8686747,15.8547215 L15.0289157,16.7748184 L15.4638554,17.1428571 L15.8072289,18.0859564 L16.0361446,20.8232446 L16.2879518,21.0072639 L17.2722892,21.8583535 L18.2108434,22.2493947 L19.5843373,23.6525424 L19.4012048,24.4346247 L19.126506,24.342615 L20.1795181,26.8728814 L20.8662651,29.6791768 L21.1180723,29.7711864 L21.346988,31.7033898 L21.3927711,31.7493947 L22.3313253,30.5072639 L23.2927711,30.0472155 L24.0253012,30.346247 L25.1698795,30.2082324 L25.0325301,29.7021792 L24.3228916,28.2760291 L26.3831325,28.9430993 L26.4289157,28.8970944 L26.4289157,28.7360775 L26.6578313,26.8498789 L26.2686747,26.2748184 L26.039759,25.1937046 L27.253012,24.5726392 L27.7108434,24.066586 L27.6650602,23.7675545 L26.9325301,22.3414044 L27.046988,21.4673123 L26.7951807,19.9031477 L26.9325301,18.7760291 L26.9325301,18.7760291 L26.0855422,17.9709443 L25.9710843,18.5 L25.4445783,17.7639225 L25.2156627,17.6949153 L25.2156627,16.5447942 L24.5975904,16.1997579 L24.0481928,15.2336562 L23.086747,14.8656174 L21.6216867,13.531477 L20.1337349,12.5423729 L19.2180723,12.1743341 L18.7831325,11.7142857 L18.5771084,11.0932203 L17.9819277,10.6101695 L16.4939759,9.62106538 L16.1963855,9.87409201 L16.4939759,9 L16.4939759,9 L16.4939759,9 Z" id="ID.SU" fill="#FFFFFF" sketch:type="MSShapeGroup"></path>
                <path d="M44.1759036,35.3547215 L44.0614458,34.9866828 L43.5349398,34.7106538 L43.0084337,34.779661 L42.7108434,35.4697337 L44.1759036,35.3547215 L44.1759036,35.3547215 Z M39.8036145,31.7893462 L39.986747,31.5823245 L39.6204819,31.7433414 L39.8036145,31.7893462 L39.8036145,31.7893462 Z M40.8108434,30.1331719 L40.5819277,29.6961259 L40.6963855,30.0411622 L40.8108434,30.1331719 L40.8108434,30.1331719 Z M41.3144578,30.5012107 L41.886747,30.2941889 L41.8638554,29.8571429 L41.5433735,29.4200969 L41.2,29.6501211 L41.0855422,30.1561743 L41.3144578,30.5012107 L41.3144578,30.5012107 Z M40.9253012,29.2360775 L40.9710843,28.9140436 L40.8337349,29.3050847 L40.9253012,29.2360775 L40.9253012,29.2360775 Z M38.6361446,27.7639225 L38.0409639,26.9588378 L37.8578313,28.0859564 L37.4457831,28.4769976 L37.9951807,28.937046 L40.0554217,29.0520581 L40.3072289,29.3280872 L40.6048193,28.7530266 L39.9409639,28.1549637 L39.2084337,27.6949153 L38.6361446,27.7639225 L38.6361446,27.7639225 Z M40.5590361,27.5108959 L39.3915663,26.8438257 L38.9108434,26.9818402 L38.6361446,27.7179177 L39.3457831,27.5799031 L41.039759,28.6840194 L41.2228916,28.5460048 L40.5590361,27.5108959 L40.5590361,27.5108959 Z M37.7433735,27.9709443 L37.6518072,27.464891 L37.6518072,26.2457627 L36.6445783,25.4176755 L36.5072289,26.4067797 L36.7590361,27.5569007 L37.0795181,27.9709443 L37.7433735,27.9709443 L37.7433735,27.9709443 Z M36.553012,24.5435835 L35.7289157,24.2445521 L35.4084337,24.4515738 L37.0337349,25.4176755 L37.7891566,26.2227603 L37.8120482,25.003632 L36.553012,24.5435835 L36.553012,24.5435835 Z M33.9433735,21.783293 L33.5771084,21.3922518 L32.4554217,21.8753027 L32.3409639,22.5193705 L33.0506024,23.7154964 L33.9433735,23.37046 L33.9433735,21.783293 L33.9433735,21.783293 Z M26.8927711,19 L26.7554217,20.1271186 L27.0072289,21.6912833 L26.8927711,22.5653753 L27.6253012,23.9915254 L27.6710843,24.2905569 L27.213253,24.7966102 L26,25.4176755 L26.2289157,26.4987893 L26.6180723,27.0738499 L26.3891566,28.9600484 L26.3891566,29.1210654 L26.5036145,29.2360775 L26.3433735,29.7421308 L26.8698795,30.846247 L28.0831325,30.8922518 L29.6626506,32.2033898 L29.5939759,33.6755448 L29.273494,33.7445521 L29.8,35.216707 L30.5096386,35.653753 L30.6927711,36.0677966 L31.6542169,37.3559322 L33.3481928,38.7360775 L34.2409639,39.1271186 L34.286747,39.2421308 L34.8361446,39.035109 L35.5,38.3680387 L36.4385542,38.2300242 L37.1939759,39.0811138 L38.4072289,39.035109 L39.4373494,37.8619855 L42.573494,37.6089588 L42.573494,37.5859564 L42.1156627,37.3099274 L43.3518072,35.7917676 L42.9855422,35.6077482 L42.1385542,35.4697337 L42.8710843,34.8256659 L41.9096386,34.7336562 L42.7337349,34.4346247 L43.1228916,34.0435835 L43.2373494,33.4915254 L44.4506024,33.3535109 L44.1987952,32.0423729 L43.946988,31.6283293 L43.4204819,31.6513317 L42.8024096,30.68523 L42.2072289,30.3631961 L41.4060241,30.7542373 L41.1313253,31.1452785 L39.139759,32.1113801 L38.9108434,32.0883777 L38.3385542,32.5024213 L38.1325301,32.2723971 L39.0024096,31.9503632 L40.6048193,31.0302663 L40.8337349,30.4782082 L39.8036145,29.3050847 L38.1783133,29.2360775 L37.7433735,29.0290557 L36.6216867,27.8559322 L36.3698795,27.1658596 L36.1180723,25.7397094 L35.5,25.279661 L34.286747,24.12954 L32.5240964,23.7615012 L32.1349398,22.9104116 L30.6927711,20.8861985 L30.5783133,20.472155 L29.4108434,20.7021792 L29.4795181,21.4612591 L29.8,21.9213075 L30.1433735,23.094431 L29.6626506,22.1283293 L28.7012048,21.3692494 L28.1746988,21.2312349 L27.2590361,20.1041162 L26.8927711,19 L26.8927711,19 L26.8927711,19 Z" id="ID.RI" fill="#FFFFFF" sketch:type="MSShapeGroup"></path>
                <path d="M150.461446,25.4624697 L150.713253,25.3474576 L150.873494,24.5653753 L150.461446,25.4624697 L150.461446,25.4624697 Z M140,28.0847458 L140.549398,28.6138015 L140.755422,29.188862 L141.922892,30.1779661 L142.014458,30.5460048 L141.831325,31.5581114 L141.877108,31.5581114 L142.76988,31.7421308 L143.159036,31.5811138 L144.853012,31.3510896 L146.112048,31.0750605 L146.913253,30.5920097 L147.371084,29.9939467 L147.668675,29.0508475 L148.195181,28.3607748 L148.927711,27.8317191 L149.591566,26.7046005 L149.866265,25.7154964 L150.621687,24.9564165 L150.209639,24.3813559 L150.095181,23.8292978 L149.042169,23.9213075 L148.561446,24.3583535 L147.874699,25.4164649 L147.508434,25.3244552 L147.16506,25.6464891 L147.16506,26.4745763 L146.249398,26.7506053 L145.906024,27.5786925 L144.23494,28.5217918 L143.662651,28.6368039 L140.778313,27.9007264 L140,28.0847458 L140,28.0847458 L140,28.0847458 Z M150.095181,23.5072639 L150.209639,23.2082324 L150.003614,23.0012107 L150.095181,23.5072639 L150.095181,23.5072639 Z M151.308434,21.3680387 L150.96506,21.5290557 L151.033735,21.6440678 L151.308434,21.3680387 L151.308434,21.3680387 Z M151.491566,20.1719128 L151.216867,19.8498789 L151.125301,19.8728814 L151.491566,20.1719128 L151.491566,20.1719128 Z M151.285542,18.4697337 L151.377108,17.5726392 L151.056627,18.1476998 L151.285542,18.4697337 L151.285542,18.4697337 Z M152.109639,13.4782082 L151.812048,12.8571429 L151.331325,12.2820823 L151.033735,12.535109 L151.583133,13.3401937 L151.537349,13.8002421 L152.018072,14.1682809 L152.109639,13.4782082 L152.109639,13.4782082 Z M158.061446,12.2130751 L157.740964,11.6610169 L157.695181,12.0520581 L158.061446,12.2130751 L158.061446,12.2130751 Z M158.038554,7.98062954 L157.740964,7.68159806 L157.374699,7.68159806 L157.283133,9.26876513 L157.695181,9.40677966 L157.374699,10.2348668 L157.603614,10.8099274 L157.786747,10.6719128 L157.809639,9.88983051 L158.061446,9.59079903 L158.038554,7.98062954 L158.038554,7.98062954 Z M159.29759,6.531477 L159.183133,6.531477 L159.251807,6.60048426 L159.29759,6.531477 L159.29759,6.531477 Z M156.344578,2 L156.321687,2 L156.344578,2.04600484 L156.344578,2 L156.344578,2 Z" id="ID.SW" fill="#FFFFFF" sketch:type="MSShapeGroup"></path>
                <path d="M154.675904,47.6150121 L154.653012,47.0399516 L154.240964,46.0048426 L154.378313,45.153753 L153.89759,44.9237288 L153.691566,45.4757869 L154.103614,46.6949153 L154.103614,47.0859564 L154.675904,47.6150121 L154.675904,47.6150121 Z M146.320482,44.9467312 L146.206024,44.7627119 L146,44.8547215 L146.320482,44.9467312 L146.320482,44.9467312 Z M151.562651,43.842615 L151.127711,44.0266344 L151.585542,44.716707 L154.515663,44.440678 L155.522892,44.2566586 L156.049398,43.9806295 L154.378313,43.7966102 L152.546988,43.9116223 L151.562651,43.842615 L151.562651,43.842615 Z M147.144578,42.9455206 L146.709639,43.0375303 L146.137349,44.0266344 L146.480723,45.0157385 L147.03012,45.0157385 L147.808434,44.8317191 L148.380723,44.4636804 L149.50241,44.6707022 L149.708434,44.3716707 L151.036145,44.2336562 L150.944578,43.5435835 L150.440964,43.5435835 L150.051807,43.2675545 L149.983133,43.5205811 L148.563855,43.12954 L147.144578,43.0605327 L147.144578,42.9455206 L147.144578,42.9455206 Z M161.108434,41.3583535 L160.833735,41.6113801 L161.314458,41.5883777 L161.108434,41.3583535 L161.108434,41.3583535 Z M163.53494,41.7953995 L163.1,41.3583535 L162.527711,41.220339 L161.863855,41.8644068 L161.520482,41.8414044 L161.383133,42.5774818 L161.520482,43.2215496 L162.207229,43.4745763 L164.015663,43.1985472 L164.587952,43.3825666 L165.022892,42.5774818 L163.809639,41.7263923 L163.53494,41.7953995 L163.53494,41.7953995 Z M162.893976,40.6682809 L162.161446,40.3232446 L161.726506,40.6912833 L161.909639,40.8062954 L162.893976,40.6682809 L162.893976,40.6682809 Z M161.062651,38.1150121 L160.559036,37.1949153 L160.261446,38.0690073 L161.062651,38.1150121 L161.062651,38.1150121 Z M162.642169,36.0677966 L162.527711,35.7917676 L161.245783,35.5617433 L161.062651,35.6307506 L161.039759,36.6658596 L161.818072,37.401937 L161.657831,37.7469734 L163.191566,38.7130751 L163.901205,38.1380145 L163.695181,37.7469734 L163.077108,37.6319613 L162.550602,36.9418886 L162.642169,36.0677966 L162.642169,36.0677966 Z M160.559036,35.1246973 L160.146988,36.4358354 L160.375904,36.6658596 L160.742169,35.5387409 L160.971084,35.3087167 L160.559036,35.1246973 L160.559036,35.1246973 Z M172.142169,34.9176755 L171.959036,34.3656174 L170.883133,33.4455206 L171.272289,34.1585956 L171.684337,34.3656174 L172.142169,34.9176755 L172.142169,34.9176755 Z M161.566265,31.9503632 L161.474699,31.5823245 L161.2,31.6743341 L161.268675,32.1113801 L161.566265,31.9503632 L161.566265,31.9503632 Z M161.612048,29.4891041 L161.383133,29.4430993 L161.406024,30.2251816 L161.63494,30.0411622 L161.612048,29.4891041 L161.612048,29.4891041 Z M156.392771,26.4527845 L156.461446,26.1997579 L156.209639,26.1767554 L156.392771,26.4527845 L156.392771,26.4527845 Z M164.542169,21.346247 L162.779518,22.8644068 L162.481928,23.37046 L162.001205,24.9346247 L162.092771,25.3946731 L161.451807,26.7748184 L161.612048,27.8099274 L161.840964,27.7179177 L161.978313,28.7300242 L162.504819,28.8680387 L162.23012,29.535109 L162.115663,30.6162228 L162.756627,31.7893462 L162.962651,31.7893462 L163.008434,35.3317191 L163.718072,35.7687651 L164.679518,37.7239709 L165.663855,38.2070218 L165.846988,38.6670702 L166.259036,38.5290557 L164.931325,36.6428571 L164.427711,35.3087167 L163.924096,33.8135593 L164.061446,32.8934625 L164.015663,31.2372881 L164.244578,30.9842615 L165.206024,31.1452785 L165.503614,31.4213075 L166.693976,31.4673123 L167.266265,31.9273608 L168.593976,32.2953995 L168.548193,31.9733656 L167.953012,31.8353511 L167.838554,30.6622276 L166.60241,30.1101695 L166.007229,29.9491525 L165.503614,29.3510896 L166.785542,28.2929782 L167.884337,27.6719128 L167.884337,27.1198547 L168.090361,26.2687651 L167.93012,24.8656174 L167.563855,24.8196126 L165.778313,25.5786925 L165.091566,26.3837772 L165.114458,27.3728814 L164.793976,27.3728814 L164.107229,28.0399516 L164.061446,28.7300242 L163.512048,29.2130751 L162.550602,28.3389831 L163.580723,27.2578692 L163.901205,27.0968523 L164.313253,26.3837772 L164.519277,25.1646489 L164.336145,24.5435835 L164.404819,24.0145278 L164.038554,23.5774818 L163.718072,23.531477 L163.626506,22.8414044 L164.015663,22.5423729 L164.542169,21.346247 L164.542169,21.346247 Z M163.054217,20.909201 L163.168675,21.2542373 L163.351807,21.1162228 L163.054217,20.909201 L163.054217,20.909201 Z M165.091566,20.7711864 L164.862651,20.472155 L164.954217,20.7711864 L165.091566,20.7711864 L165.091566,20.7711864 Z M167.151807,19 L166.46506,19.1150121 L165.801205,19.8510896 L165.228916,20.9322034 L165.457831,21.18523 L165.526506,21.9443099 L166.716867,22.1283293 L167.426506,20.9552058 L167.655422,19.9661017 L167.151807,19 L167.151807,19 Z" id="ID.LA" fill="#FFFFFF" sketch:type="MSShapeGroup"></path>
                <path d="M27.0192771,50.1973366 L26.4927711,49.2082324 L25.8746988,48.5181598 L25.6228916,48.8401937 L25.9204819,50.1973366 L26.4012048,50.5193705 L26.6759036,51.4164649 L27.0192771,50.1973366 L27.0192771,50.1973366 Z M25.760241,48.4491525 L25.760241,47.9891041 L24.7987952,46.9309927 L24.6843373,48.4951574 L24.8903614,48.909201 L25.760241,48.4491525 L25.760241,48.4491525 Z M23.4024096,44.8837772 L23.0361446,44.2857143 L22.6240964,44.5157385 L22.853012,45.6658596 L23.0819277,45.6658596 L24.0891566,46.3099274 L24.1120482,46.1949153 L23.4024096,44.8837772 L23.4024096,44.8837772 Z M19.6024096,38.1900726 L18.1373494,39.2941889 L18,39.5242131 L18.1831325,40.1682809 L19.1216867,41.7554479 L19.373494,42.3535109 L20.5180723,43.066586 L21.2048193,42.7905569 L20.9987952,41.7554479 L20.586747,40.9503632 L20.1746988,39.68523 L19.5337349,38.4891041 L19.6024096,38.1900726 L19.6024096,38.1900726 Z M20.8385542,31.5193705 L21.8,31.6113801 L21.9831325,31.933414 L22.6698795,32.094431 L23.8144578,33.1985472 L24.4325301,34.9007264 L25.1650602,35.6368039 L25.760241,36.6489104 L26.4698795,37.5 L26.6987952,38.3970944 L26.9963855,38.7421308 L26.7903614,39.2251816 L27.0421687,40.0992736 L27.6144578,40.3062954 L28.0722892,41.6404358 L29.239759,44.1476998 L28.9650602,44.9757869 L29.4,46.0569007 L29.8349398,46.8159806 L29.8807229,46.8849879 L31.0710843,46.0569007 L31.2771084,45.8958838 L31.4373494,45.8498789 L31.2771084,45.1828087 L30.4759036,43.4116223 L30.4072289,42.5145278 L30.9795181,42.62954 L32.2156627,42.4915254 L33.039759,41.594431 L33.2915663,40.7663438 L33.2,40.4443099 L33.9554217,39.7082324 L33.7951807,38.9031477 L33.726506,38.7421308 L33.6807229,38.6271186 L32.7879518,38.2360775 L31.0939759,36.8559322 L30.1325301,35.5677966 L29.9493976,35.153753 L29.239759,34.716707 L28.713253,33.2445521 L29.0337349,33.1755448 L29.1024096,31.7033898 L27.5228916,30.3922518 L26.3096386,30.346247 L25.7831325,29.2421308 L25.9433735,28.7360775 L25.8289157,28.6210654 L25.7831325,28.6670702 L23.7228916,28 L24.4325301,29.4261501 L24.5698795,29.9322034 L23.4253012,30.0702179 L22.6927711,29.7711864 L21.7313253,30.2312349 L20.7927711,31.4733656 L20.8385542,31.5193705 L20.8385542,31.5193705 Z" id="ID.SB" fill="#FFFFFF" sketch:type="MSShapeGroup"></path>
                <path d="M75.1674699,78.5762712 L76.060241,79.1053269 L76.4036145,79.1973366 L77.2048193,79.5653753 L77.8457831,79.6113801 L77.6626506,79.220339 L77.6168675,77.5871671 L76.1975904,76.8970944 L76.060241,76 L75.1216867,76.874092 L74.6409639,76.598063 L74,77.8631961 L75.1674699,78.5762712 L75.1674699,78.5762712 Z" id="ID.YO" fill="#FFFFFF" sketch:type="MSShapeGroup"></path>
                <path d="M162.812048,79.6162228 L162.583133,80.0532688 L162.83494,79.9842615 L162.812048,79.6162228 L162.812048,79.6162228 Z M160.179518,79.7772397 L160.591566,79.6392252 L160.179518,79.3171913 L160.179518,79.7772397 L160.179518,79.7772397 Z M160.93494,78.9951574 L160.751807,79.4322034 L161.919277,79.8692494 L162.331325,79.4552058 L162.216867,79.1791768 L160.93494,78.9951574 L160.93494,78.9951574 Z M176.959036,79.248184 L176.844578,78.9491525 L175.814458,79.8002421 L175.310843,80.4213075 L176.844578,79.5932203 L177.485542,79.1331719 L176.959036,79.248184 L176.959036,79.248184 Z M157.936145,79.0411622 L157.707229,78.5811138 L157.592771,78.9951574 L157.936145,79.0411622 L157.936145,79.0411622 Z M170.618072,77.3849879 L169.977108,77.2929782 L169.679518,77.8910412 L170.160241,78.6501211 L170.480723,78.7421308 L171.03012,77.7760291 L170.618072,77.3849879 L170.618072,77.3849879 Z M171.877108,76.9939467 L171.739759,76.7639225 L171.716867,76.9249395 L171.877108,76.9939467 L171.877108,76.9939467 Z M177.462651,76.3038741 L176.684337,76.5799031 L177.233735,76.6949153 L177.462651,76.3038741 L177.462651,76.3038741 Z M155.624096,76.5569007 L155.09759,76.0048426 L154.593976,76.1198547 L153.678313,76.7179177 L153.060241,76.8329298 L152.281928,76.7179177 L151.984337,76.5108959 L151.206024,77.4539952 L151,78.4891041 L151.457831,78.098063 L153.33494,77.937046 L154.250602,78.2590799 L155.143373,77.1779661 L156.104819,77.1089588 L156.150602,76.7179177 L155.624096,76.5569007 L155.624096,76.5569007 Z M170.29759,75.9358354 L170.366265,76.0508475 L170.457831,76.0048426 L170.29759,75.9358354 L170.29759,75.9358354 Z M158.943373,76.464891 L159.46988,75.8668281 L159.149398,75.6598063 L158.943373,76.464891 L158.943373,76.464891 Z M177.783133,75.153753 L176.798795,75.4757869 L177.210843,75.4987893 L177.783133,75.153753 L177.783133,75.153753 Z M178.309639,74.6246973 L178.195181,74.5096852 L178.126506,74.6707022 L178.309639,74.6246973 L178.309639,74.6246973 Z M180.209639,73.7276029 L179.637349,73.6585956 L179.614458,73.8656174 L178.881928,74.7397094 L178.057831,75.5447942 L177.737349,76.6489104 L177.371084,76.6949153 L177.210843,77.4769976 L177.210843,78.2590799 L177.920482,78.374092 L179.20241,76.901937 L179.637349,76.6949153 L180.209639,73.7276029 L180.209639,73.7276029 Z M181.560241,73.3825666 L180.759036,73.4285714 L180.621687,73.5895884 L181.445783,73.8196126 L181.812048,74.1876513 L181.812048,73.7736077 L181.560241,73.3825666 L181.560241,73.3825666 Z M165.490361,73.8196126 L165.261446,73.1525424 L164.849398,73.4285714 L165.03253,73.8196126 L165.490361,73.8196126 L165.490361,73.8196126 Z M167.871084,72.7845036 L167.916867,72.6694915 L167.893976,72.5774818 L167.871084,72.7845036 L167.871084,72.7845036 Z M169.885542,71.2433414 L169.656627,71.2663438 L169.771084,71.496368 L169.885542,71.2433414 L169.885542,71.2433414 Z M195.318072,71.4273608 L195.684337,70.6452785 L195.386747,70.5992736 L195.066265,71.3813559 L195.318072,71.4273608 L195.318072,71.4273608 Z M195.661446,70.2312349 L195.363855,69.7251816 L195.157831,69.909201 L195.661446,70.2312349 L195.661446,70.2312349 Z M195.112048,69.5411622 L194.585542,68.9200969 L194.287952,68.7820823 L193.853012,69.1961259 L194.562651,69.9782082 L194.837349,70.0702179 L195.112048,69.5411622 L195.112048,69.5411622 Z M196.233735,69.748184 L196.073494,69.2421308 L196.050602,69.7021792 L196.233735,69.748184 L196.233735,69.748184 Z M194.26506,69.6791768 L193.555422,69.0811138 L193.624096,68.9430993 L192.983133,68.3680387 L193.006024,69.909201 L192.593976,69.8401937 L192.250602,71.4043584 L192.387952,71.8874092 L192.822892,72.3474576 L193.143373,72.1404358 L194.013253,70.8753027 L194.356627,70.8983051 L194.631325,70.4612591 L194.26506,69.6791768 L194.26506,69.6791768 Z M193.028916,67.1949153 L192.8,67.8389831 L193.143373,68 L192.983133,68.2760291 L193.853012,69.0121065 L194.036145,68.598063 L193.372289,67.8849879 L193.372289,67.3329298 L193.028916,67.1949153 L193.028916,67.1949153 Z M193.349398,66.1828087 L193.463855,65.9757869 L193.23494,65.7687651 L193.349398,66.1828087 L193.349398,66.1828087 Z M185.978313,65.0096852 L185.657831,65.1476998 L185.840964,66.7808717 L186.23012,66.7348668 L186.436145,66.1368039 L185.909639,65.1937046 L185.978313,65.0096852 L185.978313,65.0096852 Z M186.413253,64.6416465 L186.161446,65.0786925 L186.36747,65.3087167 L186.413253,64.6416465 L186.413253,64.6416465 Z M184.238554,64.5496368 L184.078313,64.6186441 L184.192771,64.7566586 L184.238554,64.5496368 L184.238554,64.5496368 Z M160.545783,64.3886199 L160.522892,64.4116223 L160.568675,64.4346247 L160.545783,64.3886199 L160.545783,64.3886199 Z M160.545783,64.2966102 L160.5,64.3196126 L160.545783,64.342615 L160.545783,64.2966102 L160.545783,64.2966102 Z M195.340964,63.905569 L194.883133,64.0205811 L193.990361,65.5847458 L193.646988,65.3547215 L193.349398,65.5387409 L193.96747,66.0447942 L193.715663,66.7348668 L193.601205,67.6319613 L193.83012,68.4140436 L195.13494,69.2421308 L195.890361,68.3910412 L196.050602,67.6779661 L195.913253,66.9878935 L196.027711,65.1246973 L195.821687,64.5496368 L195.340964,63.905569 L195.340964,63.905569 Z M161.804819,63.8135593 L161.781928,63.7905569 L161.736145,63.8365617 L161.804819,63.8135593 L161.804819,63.8135593 Z M161.690361,63.4455206 L161.690361,63.4915254 L161.713253,63.5145278 L161.690361,63.4455206 L161.690361,63.4455206 Z M187.672289,65.1707022 L188.175904,64.4576271 L188.404819,63.1924939 L188.336145,63.1464891 L187.443373,65.1707022 L187.260241,65.1246973 L186.527711,67.0799031 L187.672289,65.1707022 L187.672289,65.1707022 Z M181.262651,58.8450363 L181.056627,58.3159806 L180.96506,58.2929782 L181.262651,58.8450363 L181.262651,58.8450363 Z M179.93494,56.751816 L179.431325,56.3837772 L179.522892,56.5447942 L179.93494,56.751816 L179.93494,56.751816 Z M179.248193,56.1307506 L179.20241,55.8087167 L179.087952,55.7627119 L179.248193,56.1307506 L179.248193,56.1307506 Z M159.446988,55.3716707 L159.446988,54.8656174 L158.943373,55.1416465 L159.446988,55.3716707 L159.446988,55.3716707 Z M167.207229,54.1525424 L167.23012,53.8765133 L167.138554,53.8305085 L167.207229,54.1525424 L167.207229,54.1525424 Z M165.421687,53.7845036 L166.085542,53.5774818 L166.062651,53.4624697 L165.421687,53.7845036 L165.421687,53.7845036 Z M164.895181,53.4624697 L164.940964,53.1404358 L163.453012,53.5774818 L163.201205,53.7384988 L162.926506,54.5435835 L164.368675,53.8995157 L164.048193,54.405569 L164.528916,54.2445521 L164.895181,53.4624697 L164.895181,53.4624697 Z M166.589157,53.2554479 L166.886747,53.7154964 L166.909639,53.3244552 L166.589157,53.2554479 L166.589157,53.2554479 Z M161.049398,51.6912833 L160.79759,51.8983051 L161.209639,52.1513317 L161.049398,51.6912833 L161.049398,51.6912833 Z M162.285542,51.622276 L162.262651,51.1622276 L161.942169,51.1162228 L161.621687,51.5072639 L162.285542,51.622276 L162.285542,51.622276 Z M157.844578,50.8631961 L157.066265,50.5871671 L155.601205,50.6331719 L154.616867,51.0932203 L153.953012,50.8861985 L153.563855,51.2082324 L153.426506,51.6452785 L153.472289,52.2893462 L154.387952,53.8075061 L155.509639,54.4745763 L156.768675,55.1186441 L157.821687,54.6815981 L158.920482,53.9225182 L159.446988,53.8765133 L159.721687,52.4273608 L158.966265,52.3353511 L158.622892,51.8523002 L158.966265,51.5302663 L157.844578,50.8631961 L157.844578,50.8631961 Z M163.361446,49.9661017 L162.720482,50.1961259 L163.018072,50.4031477 L163.361446,49.9661017 L163.361446,49.9661017 Z M171.121687,49 L170.274699,49.1610169 L170.183133,49.437046 L168.924096,49.9430993 L168.695181,49.1380145 L167.962651,49.437046 L166.314458,49.4140436 L166.131325,49.3220339 L164.506024,49.4600484 L163.819277,50.0121065 L163.933735,50.6331719 L163.453012,50.6561743 L162.766265,51.4152542 L162.949398,53.3014528 L163.018072,52.933414 L163.636145,51.9213075 L163.704819,51.346247 L164.231325,50.6331719 L165.307229,52.5653753 L166.039759,52.7033898 L166.680723,52.6803874 L166.772289,52.220339 L167.298795,51.7142857 L168.168675,51.5532688 L168.1,52.2433414 L168.855422,52.220339 L170.686747,52.8644068 L170.892771,52.8644068 L170.846988,51.9443099 L172.724096,52.1283293 L172.93012,52.220339 L173.845783,53.2554479 L174.738554,53.6004843 L175.951807,54.3595642 L176.157831,54.6355932 L177.096386,55.0956416 L177.210843,54.8886199 L177.16506,52.5883777 L176.546988,52.5193705 L176.363855,51.4382567 L175.26506,50.2191283 L173.571084,50.1961259 L171.121687,49 L171.121687,49 Z" id="ID.MA" fill="#FFFFFF" sketch:type="MSShapeGroup"></path>
                <path d="M106.646988,80.7021792 L106.143373,80.035109 L105.136145,79.7130751 L104.449398,79.8280872 L103.442169,80.7941889 L103.121687,81.3002421 L103.144578,82.5193705 L102.29759,82.7493947 L102,83.094431 L102.846988,83.6004843 L102.984337,83.37046 L104.724096,83.8765133 L104.746988,83.3014528 L105.113253,83.2324455 L105.548193,83.531477 L105.273494,83.0254237 L106.257831,81.622276 L106.326506,81.2082324 L106.646988,80.7021792 L106.646988,80.7021792 Z M110.653012,80.6331719 L111.293976,79.3220339 L110.424096,79.4830508 L110.46988,80.1501211 L110.309639,80.472155 L110.653012,80.6331719 L110.653012,80.6331719 Z M118.344578,79.8970944 L118.527711,79.437046 L118.092771,79.3220339 L118.344578,79.8970944 L118.344578,79.8970944 Z M112.827711,79.0460048 L112.461446,79 L111.454217,79.7820823 L112.827711,81.1622276 L113.010843,81.0702179 L114.155422,81.8062954 L114.201205,82.0133172 L113.079518,82.1973366 L112.553012,82.7033898 L111.568675,82.220339 L111.706024,82.0823245 L111.042169,81.5992736 L110.996386,81.0702179 L110.698795,80.8631961 L110.012048,81.2082324 L108.890361,80.4951574 L107.791566,81.2772397 L107.059036,81.346247 L106.784337,81.783293 L106.601205,82.657385 L106.761446,82.7493947 L106.395181,83.4164649 L106.486747,84.2215496 L107.379518,84.4745763 L107.654217,84.7276029 L108.249398,84.6355932 L108.478313,84.3135593 L110.401205,84.12954 L110.973494,83.7845036 L112.072289,83.7615012 L112.736145,83.3474576 L113.422892,83.3934625 L114.681928,82.2893462 L114.819277,81.783293 L114.704819,83.3014528 L114.956627,83.37046 L116.421687,83.0024213 L117.268675,83.2554479 L117.268675,82.9794189 L116.375904,82.8644068 L116.490361,82.496368 L117.245783,82.3813559 L118.459036,82.6113801 L118.596386,82.4273608 L117.93253,82.1283293 L118.001205,81.1392252 L117.772289,80.2421308 L116.90241,80.1501211 L116.490361,80.4491525 L116.421687,81.0472155 L116.192771,81.0702179 L116.055422,80.1041162 L115.3,79.874092 L114.681928,80.4261501 L114.086747,80.3341404 L113.69759,79.2530266 L112.827711,79.0460048 L112.827711,79.0460048 Z" id="ID.NB" fill="#FFFFFF" sketch:type="MSShapeGroup"></path>
                <path d="M143.108434,67.688862 L142.742169,66.9527845 L142.627711,67.1598063 L143.108434,67.688862 L143.108434,67.688862 Z M141.963855,65.2276029 L141.940964,64.9515738 L141.689157,64.7445521 L141.963855,65.2276029 L141.963855,65.2276029 Z M141.162651,64.0544794 L141.139759,63.5024213 L140.727711,63.3874092 L140.796386,63.9854722 L141.162651,64.0544794 L141.162651,64.0544794 Z M132.761446,62.5363196 L132.143373,63.4564165 L132.875904,64.62954 L133.287952,64.5375303 L133.448193,63.0653753 L132.96747,62.3983051 L132.761446,62.5363196 L132.761446,62.5363196 Z M137.042169,61.7082324 L136.927711,59.9830508 L136.721687,59.7990315 L135.874699,60.3510896 L135.256627,60.5121065 L134.936145,60.9491525 L135.096386,61.8692494 L134.890361,62.5823245 L134.615663,64.1924939 L135.371084,64.2384988 L135.760241,63.8934625 L135.851807,64.3995157 L136.355422,63.6634383 L136.195181,63.2493947 L136.446988,62.3062954 L137.042169,61.7082324 L137.042169,61.7082324 Z M139.262651,60.1670702 L138.736145,58.5569007 L138.392771,58.5569007 L137.614458,59.5690073 L137.293976,61.1101695 L137.339759,61.4552058 L136.904819,62.1912833 L137.110843,62.3292978 L136.286747,64.3075061 L135.828916,64.8595642 L136.561446,65.5266344 L137.06506,65.8026634 L137.568675,64.9745763 L137.477108,64.4915254 L138.163855,64.3535109 L139.125301,63.594431 L138.324096,62.7663438 L138.026506,63.0423729 L137.957831,61.9612591 L138.23253,61.4782082 L138.278313,60.9951574 L138.827711,60.3510896 L139.216867,61.1101695 L139.262651,60.1670702 L139.262651,60.1670702 Z M138.804819,56.3716707 L138.553012,56.2106538 L138.140964,56.6246973 L138.255422,57.0847458 L139.010843,57.7058111 L139.193976,57.590799 L139.422892,56.3256659 L138.804819,56.3716707 L138.804819,56.3716707 Z M139.377108,54.094431 L139.216867,53.7493947 L138.827711,53.9794189 L139.377108,54.094431 L139.377108,54.094431 Z M135.073494,53.933414 L135.16506,53.6113801 L135.073494,53.657385 L135.073494,53.933414 L135.073494,53.933414 Z M135.806024,53.4273608 L135.783133,53.0823245 L135.577108,53.1513317 L135.806024,53.4273608 L135.806024,53.4273608 Z M129.16747,50.2990315 L129.053012,51.2191283 L128.755422,52.1392252 L128.572289,52.2312349 L128,53.5193705 L128.091566,53.7493947 L129.350602,55.1985472 L129.854217,55.4285714 L129.991566,55.7276029 L131.250602,56.4866828 L131.525301,57.2917676 L131.181928,57.7748184 L130.724096,59.6380145 L130.724096,60.0520581 L131.044578,60.5581114 L131.685542,60.9951574 L132.578313,61.0871671 L133.677108,61.0641646 L133.791566,60.9491525 L133.471084,60.098063 L133.745783,59.4079903 L135.645783,58.7869249 L136.515663,58.6489104 L137.133735,59.062954 L137.133735,58.6719128 L136.698795,58.1198547 L137.5,58.8329298 L137.751807,56.877724 L137.271084,56.6246973 L137.591566,57.0847458 L136.836145,57.1307506 L136.424096,56.2336562 L136.790361,55.8886199 L136.309639,55.7046005 L135.714458,54.8305085 L135.187952,54.7615012 L134.546988,53.933414 L134.890361,53.657385 L135.210843,52.8292978 L135.325301,52.0472155 L135.325301,52.0472155 L133.951807,51.2421308 L132.051807,50.6210654 L131.708434,50.5520581 L131.387952,50.7590799 L131.090361,50.8280872 L130.128916,50.0230024 L129.579518,50 L129.190361,50.2070218 L129.16747,50.2990315 L129.16747,50.2990315 Z" id="ID.SG" fill="#FFFFFF" sketch:type="MSShapeGroup"></path>
                <path d="M142.831325,44.4249395 L142.648193,44.401937 L142.671084,44.5399516 L142.831325,44.4249395 L142.831325,44.4249395 Z M143.426506,44.7009685 L143.060241,44.0569007 L143.151807,44.7699758 L143.426506,44.7009685 L143.426506,44.7009685 Z M139.626506,44.1719128 L139.924096,43.7808717 L139.649398,43.3898305 L139.626506,44.1719128 L139.626506,44.1719128 Z M140.748193,43.5048426 L140.954217,42.9527845 L140.519277,43.4588378 L140.748193,43.5048426 L140.748193,43.5048426 Z M142.007229,42.5157385 L141.686747,42.0096852 L141.640964,43.1368039 L142.007229,42.5157385 L142.007229,42.5157385 Z M140.244578,40.0084746 L138.733735,40.1694915 L138.413253,40.6755448 L138.687952,42.4467312 L139.374699,41.7106538 L139.695181,41.0895884 L140.038554,41.1355932 L139.809639,42.4697337 L140.26747,42.4927361 L140.496386,41.7566586 L141.228916,42.0556901 L141.846988,41.5726392 L141.961446,40.7445521 L141.045783,40.3995157 L140.496386,41.2506053 L140.244578,40.0084746 L140.244578,40.0084746 Z M133.606024,35.7530266 L132.598795,36.374092 L132.621687,36.6041162 L133.926506,36.1440678 L133.606024,35.7530266 L133.606024,35.7530266 Z M134.56747,35.3849879 L133.651807,35.6150121 L133.995181,35.8220339 L134.56747,35.3849879 L134.56747,35.3849879 Z M135.048193,35.5920097 L134.819277,34.9709443 L134.727711,35.0169492 L135.048193,35.5920097 L135.048193,35.5920097 Z M135.963855,34.7869249 L135.803614,34.8329298 L136.192771,35.4539952 L135.963855,34.7869249 L135.963855,34.7869249 Z M126.303614,27.7021792 L126.326506,27.3801453 L126.257831,27.4031477 L126.303614,27.7021792 L126.303614,27.7021792 Z M122.251807,38.1912833 L122.343373,40.1694915 L122.022892,40.3995157 L122,41.0895884 L122.572289,41.342615 L122.86988,42.3087167 L123.533735,43.5968523 L123.419277,44.125908 L123.556627,44.5169492 L123.648193,44.5169492 L123.831325,44.4249395 L124.792771,43.9418886 L126.418072,43.9188862 L127.013253,44.9079903 L128.226506,46.1271186 L131.591566,47.1392252 L131.866265,47.5072639 L132.804819,48.220339 L133.010843,48.5423729 L132.987952,49.1404358 L132.118072,50.1755448 L132.026506,50.2445521 L132.36988,50.3135593 L134.26988,50.9346247 L135.643373,51.7397094 L135.73494,51.6246973 L136.101205,51.7857143 L136.124096,51.0496368 L135.391566,50.6355932 L134.796386,49.1864407 L134.155422,48.6803874 L133.766265,47.3922518 L132.66747,45.7820823 L131.957831,45.5290557 L131.866265,45.0920097 L131.110843,44.4479419 L130.927711,44.7239709 L130.950602,43.8728814 L131.751807,44.0799031 L131.980723,44.3789346 L132.66747,44.2639225 L134.956627,42.4927361 L135.162651,42.5847458 L137.108434,40.5605327 L137.451807,40.2845036 L138.459036,38.559322 L139.580723,38.4673123 L139.740964,38.1912833 L140.015663,38.7663438 L140.450602,39.2723971 L141.183133,39.0423729 L141.526506,37.7772397 L141.274699,37.1101695 L140.473494,36.7191283 L138.115663,37.3401937 L138.710843,37.409201 L138.848193,37.8002421 L136.353012,37.7542373 L135.345783,37.8002421 L134.521687,38.6513317 L133.949398,38.8813559 L132.896386,38.7663438 L132.278313,38.0762712 L132.255422,38.2372881 L130.263855,40.3765133 L129.668675,41.503632 L128.478313,41.066586 L127.7,41.3656174 L127.173494,40.2615012 L127.26506,39.7324455 L126.807229,38.9733656 L126.326506,38.5823245 L126.006024,38.7893462 L125.616867,38.4903148 L124.861446,37.2021792 L124.678313,35.8680387 L124.403614,34.8099274 L124.563855,33.8438257 L125.06747,32.4636804 L125.777108,31.3595642 L126.280723,30.8075061 L128.386747,30.7615012 L128.775904,31.1065375 L129.920482,31.1985472 L130.195181,30.9225182 L131.019277,30.8995157 L131.042169,30.8765133 L131.06506,30.37046 L130.172289,29.6343826 L130.538554,29.4043584 L131.06506,28.6912833 L132.919277,28.3002421 L133.514458,28.0242131 L135.277108,27.7021792 L135.254217,27.6791768 L133.926506,27.2881356 L132.461446,27.4951574 L131.728916,27.1731235 L131.454217,26.5750605 L131.660241,26.4140436 L130.63012,26.5520581 L129.622892,26 L128.753012,26 L128.455422,26.4140436 L128.363855,27.472155 L127.379518,28.6682809 L127.448193,28.8062954 L126.486747,28.9213075 L126.09759,28.5762712 L126.074699,27.9552058 L125.616867,28.2312349 L125.571084,28.8062954 L124.63253,29.3583535 L124.586747,30.5774818 L123.9,31.12954 L123.419277,32.3946731 L123.877108,33.0847458 L123.671084,33.8438257 L123.327711,33.9128329 L122.824096,33.31477 L122.618072,33.4297821 L123.46506,34.3728814 L123.350602,34.8329298 L123.213253,36.1440678 L123.396386,36.9261501 L123.739759,37.9382567 L123.648193,38.4213075 L123.053012,37.0871671 L122.251807,38.1912833 L122.251807,38.1912833 L122.251807,38.1912833 Z" id="ID.ST" fill="#FFFFFF" sketch:type="MSShapeGroup"></path>
                <path d="M216.19759,80.4975787 L215.854217,79.4394673 L215.144578,79.5774818 L214.549398,80.2445521 L214.480723,80.5895884 L216.128916,80.7966102 L216.19759,80.4975787 L216.19759,80.4975787 Z M216.289157,78.7493947 L217.410843,76.1271186 L216.746988,75.9430993 L216.33494,75.3220339 L215.716867,74.9079903 L214.114458,75.1610169 L213.336145,75.4600484 L212.1,76.472155 L210.955422,78.4273608 L209.925301,80.7046005 L209.90241,80.9116223 L210.978313,80.6355932 L212.809639,80.7276029 L213.359036,80.8886199 L213.908434,80.6585956 L216.289157,78.7493947 L216.289157,78.7493947 Z M216.083133,72.1016949 L216.289157,71.9176755 L216.037349,71.5496368 L215.762651,72.0096852 L216.083133,72.1016949 L216.083133,72.1016949 Z M201.409639,42.3825666 L201.501205,42.8886199 L202.577108,43.003632 L205.095181,44.1307506 L205.598795,43.9007264 L206.262651,44.0847458 L207.201205,43.9697337 L208.414458,43.5326877 L207.475904,43.1646489 L205.919277,43.1416465 L204.93494,42.7276029 L204.477108,42.7276029 L201.409639,42.3825666 L201.409639,42.3825666 Z M199.692771,41.7384988 L199.555422,41.968523 L199.96747,42.0145278 L199.692771,41.7384988 L199.692771,41.7384988 Z M197.174699,49.3983051 L195.892771,50.9624697 L195.412048,51.3995157 L195,52.5726392 L199.898795,54.5968523 L197.815663,57.4031477 L197.861446,57.4031477 L198.227711,57.748184 L199.303614,58.4842615 L200.425301,58.4152542 L201.615663,58.6912833 L203.172289,58.8983051 L203.378313,59.1743341 L204.591566,59.7723971 L205.255422,59.9564165 L207.178313,60.9455206 L207.86506,61.0835351 L208.689157,61.4745763 L208.872289,61.2905569 L209.192771,61.6815981 L210.589157,62.3946731 L210.909639,62.279661 L210.93253,62.6246973 L212.031325,63.0157385 L212.054217,63.6368039 L213.015663,64.3268765 L213.290361,64.0968523 L213.13012,65.3159806 L213.221687,65.7300242 L213.885542,65.5 L214.618072,65.4309927 L213.587952,65.9600484 L214.389157,67.4782082 L214.549398,68.559322 L214.86988,69.5024213 L215.510843,70.2154964 L216.540964,71.2276029 L215.945783,70.8825666 L216.472289,71.779661 L218.189157,72.7227603 L217.983133,72.7227603 L216.93012,71.9866828 L216.037349,72.2857143 L215.396386,72.1937046 L215.144578,72.4237288 L216.060241,73.527845 L216.907229,74.0338983 L215.648193,73.964891 L216.357831,74.6549637 L216.724096,75.2760291 L217.387952,75.874092 L216.426506,78.0823245 L216.403614,78.9564165 L215.968675,79.3014528 L216.289157,80.1525424 L217.227711,79.2784504 L217.914458,78.933414 L218.028916,79.3474576 L218.898795,79.6234867 L219.906024,79.2094431 L221.828916,79.8995157 L223.980723,82.1077482 L224.461446,83.0738499 L225.491566,84.4309927 L226.063855,84.7530266 L226.704819,77.2312349 L227.048193,72.9067797 L226.933735,72.2397094 L227.322892,69.1343826 L227.803614,61.5435835 L228.215663,53.6077482 L228.215663,48.1101695 L227.093976,48.1101695 L227.3,47.8571429 L226.681928,47.1670702 L225.606024,46.9140436 L225.308434,47.2590799 L224.186747,46.5 L223.019277,46.7760291 L220.180723,45.3728814 L219.333735,44.751816 L218.555422,44.4527845 L217.181928,43.4866828 L215.648193,43.0496368 L215.03012,42.7046005 L214.183133,42.4285714 L213.336145,41.6924939 L211.596386,42.405569 L210.657831,43.0496368 L209.490361,43.6016949 L209.398795,44.0617433 L209.993976,45.0968523 L209.627711,45.3038741 L207.384337,46.0169492 L207.26988,46.1319613 L206.033735,45.8789346 L205.690361,46.1089588 L205.23253,47.6041162 L203.607229,49.0532688 L203.378313,50.1343826 L202.485542,50.6634383 L202.485542,50.8474576 L201.546988,51.7215496 L201.272289,52.2046005 L200.287952,52.503632 L199.23494,52.3656174 L198.36506,51.7905569 L197.838554,51.0084746 L198.090361,49.9733656 L197.312048,50.0883777 L197.174699,49.3983051 L197.174699,49.3983051 Z M198.731325,39.4612591 L198.731325,38.7711864 L198.250602,38.8401937 L198.731325,39.4612591 L198.731325,39.4612591 Z M201.226506,37.0920097 L200.974699,37 L201.226506,37.7130751 L201.524096,37.6670702 L202.279518,38.3801453 L202.783133,38.035109 L203.195181,39.6452785 L203.584337,40.1053269 L204.225301,40.0363196 L204.522892,40.2663438 L205.507229,40.0823245 L205.919277,39.5762712 L205.026506,39.4152542 L204.408434,38.311138 L203.561446,37.4830508 L203.240964,37.3680387 L202.577108,37.5290557 L201.226506,37.0920097 L201.226506,37.0920097 Z" id="ID.PA" fill="#FFFFFF" sketch:type="MSShapeGroup"></path>
            </g>
        </g>
    </g>
</svg>