<?xml version="1.0" encoding="UTF-8" standalone="no"?>
<svg width="19px" height="20px" viewBox="0 0 19 20" version="1.1" xmlns="http://www.w3.org/2000/svg" xmlns:xlink="http://www.w3.org/1999/xlink" xmlns:sketch="http://www.bohemiancoding.com/sketch/ns">
    <!-- Generator: Sketch 3.4 (15575) - http://www.bohemiancoding.com/sketch -->
    <title>tools6</title>
    <desc>Created with Sketch.</desc>
    <defs></defs>
    <g id="Page-1" stroke="none" stroke-width="1" fill="none" fill-rule="evenodd" sketch:type="MSPage">
        <g id="Home" sketch:type="MSArtboardGroup" transform="translate(-244.000000, -1391.000000)" fill="#999999">
            <g id="Group-Copy-2" sketch:type="MSLayerGroup" transform="translate(210.000000, 1099.000000)">
                <g id="tools6" transform="translate(34.000000, 292.000000)" sketch:type="MSShapeGroup">
                    <path d="M18.3378781,16.8429377 L11.892714,10.3975245 C11.8323523,10.3369138 11.7677977,10.2831529 11.7013335,10.2328376 L12.8428497,9.0308352 C12.9012187,8.97205108 12.9564326,8.91023642 13.007246,8.84667816 C14.5227222,9.41832884 16.3009834,9.09696734 17.5190933,7.87902344 C18.4075805,6.99024572 18.8556433,5.76125904 18.7472082,4.50699021 C18.7354597,4.36505313 18.64143,4.24233713 18.5077127,4.19389004 C18.3737049,4.14494479 18.223548,4.17832221 18.12271,4.2787866 L16.0570874,6.34428461 L13.965726,5.81709566 L13.3726125,3.6597267 L15.4377369,1.59447778 C15.5390731,1.49347371 15.5722014,1.34319227 15.5233807,1.20935045 C15.4747676,1.07513501 15.3520931,0.981894096 15.2097409,0.969398319 C13.9555966,0.861295316 12.7265269,1.3091091 11.8377076,2.19788682 C10.6206355,3.41495892 10.2984438,5.19226528 10.8694717,6.7071188 C10.8073665,6.75963428 10.7455518,6.81547089 10.6849411,6.87520984 L9.00481946,8.48882567 L5.91952488,5.40382169 C5.88099969,5.36517196 5.83990063,5.33117183 5.79755613,5.2992474 C5.83375652,5.23573066 5.86896057,5.17034578 5.90183983,5.10247004 C6.55344687,5.22788447 7.74465561,3.95900264 8.75635691,2.94767497 L5.80901405,0 C4.49106243,1.3181592 3.52868001,2.2027855 3.65359627,2.85439254 C3.35228613,3.00160193 3.08368919,3.18160754 2.89280685,3.37273897 L2.47762324,3.78779804 C2.20807147,4.05772343 2.04550183,4.39340734 1.98746496,4.74320607 C1.94719618,4.78920381 1.90622165,4.8376509 1.86549621,4.88946063 L1.71077275,5.08391319 C1.70645527,5.08868733 1.69312921,5.10782538 1.68943445,5.11272405 L1.54919945,5.30904475 C1.46147992,5.42607331 1.38480317,5.55318982 1.3106588,5.67586431 C1.28330093,5.7214054 1.2554449,5.76702952 1.22700766,5.81252909 C1.22248261,5.82037528 1.21804059,5.82809692 1.21401371,5.83586008 L1.15170088,5.95326226 C1.07639411,6.09449361 0.99822285,6.24070665 0.931343458,6.40157422 L0.920549763,6.42718849 C0.841672764,6.61454212 0.759931285,6.80853802 0.70289076,7.0141579 L0.67528381,7.10312285 C0.65270008,7.17627089 0.629742722,7.24925287 0.608653503,7.33647423 L0.551363893,7.62014083 C0.508645771,7.79753105 0.494281854,7.97251344 0.481786077,8.12748599 L0.473441721,8.22932034 C0.452352502,8.39002185 0.458496605,8.54154872 0.464225566,8.67526599 C0.466176734,8.72005982 0.467920331,8.76398186 0.469248786,8.82322263 C0.470743297,8.84788207 0.470992383,8.8719188 0.471739638,8.89562342 C0.473192636,8.95536236 0.47481169,9.0232381 0.48635264,9.09460103 L0.522303946,9.32479732 C0.530025589,9.36930055 0.53654332,9.41251685 0.542687423,9.45394803 C0.556428627,9.54743803 0.570543458,9.64412462 0.598399493,9.73591254 L0.749179104,10.2590746 C0.795675019,10.418074 0.946703716,10.5233541 1.11197179,10.5118131 C1.19944223,10.5057105 1.27807014,10.4678911 1.33660518,10.4092315 C1.38887157,10.3569651 1.42507196,10.2882591 1.43611474,10.2107521 L1.514286,9.67887202 C1.52005647,9.63665207 1.53819818,9.57483741 1.5569626,9.50941101 C1.57033018,9.46403598 1.58332413,9.41774764 1.59337057,9.37826762 L1.64895809,9.17974667 C1.65572491,9.15288698 1.6688434,9.12673302 1.68038435,9.09987333 C1.69142713,9.0749648 1.70246991,9.04930902 1.71230878,9.02402687 C1.73094866,8.98180692 1.74850917,8.93962848 1.76577908,8.89632916 C1.8000283,8.8114326 1.83240939,8.73155926 1.88185281,8.65313892 C1.90335717,8.61693852 1.92332551,8.58098722 1.94370898,8.54428866 C1.99522812,8.45204408 2.04417337,8.36494727 2.10233478,8.29275406 C2.10598803,8.28847809 2.10930917,8.28370396 2.11312848,8.27863923 L2.24427187,8.09780333 C2.27113156,8.06380319 2.30131239,8.03167119 2.33066294,7.99929011 C2.35150307,7.97645729 2.37238472,7.95349993 2.39874624,7.9233191 C2.47617024,7.83020273 2.56708636,7.74900093 2.65480589,7.66908608 L2.70179997,7.62686613 C2.76681123,7.56650447 2.84203498,7.50971303 2.92116106,7.44968348 C2.95354214,7.4254807 2.98521749,7.40144397 3.01635314,7.37778087 C3.05633133,7.351876 3.09502257,7.32601265 3.13313262,7.30035687 C3.20453706,7.25211735 3.26635172,7.21039557 3.33779767,7.17324036 L3.49326839,7.08477357 L3.65056573,7.00764017 C3.705406,6.97928597 3.75941599,6.95744949 3.80919153,6.93735661 C3.83874964,6.92506841 3.86797565,6.91315383 3.89508443,6.90140531 C3.92269138,6.89185704 3.94930199,6.88152 3.9744596,6.87222082 C4.00816914,6.85993261 4.0372706,6.84814258 4.07679213,6.83784705 L4.11921965,6.82829878 C4.16546648,6.9031489 4.21968404,6.97430426 4.2847368,7.03931551 L7.33665396,10.0913572 L0.821496858,16.3492092 C0.818922977,16.3516586 0.816473639,16.354357 0.814107329,16.3565988 C0.00337632053,17.1673298 -0.128638867,18.3547192 0.682216683,19.1656993 C1.49307223,19.9764303 2.60498884,19.7685687 3.41551227,18.9581282 C3.4190825,18.9546826 3.42215455,18.951486 3.42530963,18.9477912 L9.17286898,12.8957666 C9.20657852,12.9354957 9.23995594,12.9754739 9.27740176,13.0130028 L15.7220677,19.4582084 C16.4442489,20.1805972 17.6156554,20.1805972 18.3378366,19.4582084 C19.0598102,18.7362763 19.0598102,17.5648283 18.3378781,16.8429377 L18.3378781,16.8429377 Z M2.57439286,18.2896664 C2.27586418,18.5885272 1.79164243,18.5885272 1.49286466,18.2896664 C1.19437749,17.9910547 1.19437749,17.5071236 1.49286466,17.2085119 C1.79135183,16.9101077 2.27561509,16.9099002 2.57439286,17.2085119 C2.87263095,17.5071651 2.87263095,17.9910547 2.57439286,18.2896664 L2.57439286,18.2896664 Z" id="Shape"></path>
                </g>
            </g>
        </g>
    </g>
</svg>