<?xml version="1.0" encoding="UTF-8" standalone="no"?>
<svg width="21px" height="15px" viewBox="0 0 21 15" version="1.1" xmlns="http://www.w3.org/2000/svg" xmlns:xlink="http://www.w3.org/1999/xlink" xmlns:sketch="http://www.bohemiancoding.com/sketch/ns">
    <!-- Generator: Sketch 3.4 (15575) - http://www.bohemiancoding.com/sketch -->
    <title>industry10</title>
    <desc>Created with Sketch.</desc>
    <defs></defs>
    <g id="Page-1" stroke="none" stroke-width="1" fill="none" fill-rule="evenodd" sketch:type="MSPage">
        <g id="Home" sketch:type="MSArtboardGroup" transform="translate(-243.000000, -1431.000000)" fill="#999999">
            <g id="Group-Copy-2" sketch:type="MSLayerGroup" transform="translate(210.000000, 1099.000000)">
                <g id="industry10" transform="translate(33.000000, 332.000000)" sketch:type="MSShapeGroup">
                    <path d="M0.241434426,1.43565574 L3.30586066,1.43565574 C3.43918033,1.43565574 3.54729508,1.32758197 3.54729508,1.1942623 L3.54729508,0.268934426 C3.54729508,0.135614754 3.43918033,0.0275 3.30586066,0.0275 L0.241434426,0.0275 C0.108114754,0.0275 0,0.135614754 0,0.268934426 L0,1.19430328 C0,1.32762295 0.108114754,1.43565574 0.241434426,1.43565574 L0.241434426,1.43565574 Z" id="Shape"></path>
                    <path d="M19.9452049,3.9172541 C19.859918,3.86151639 19.7522541,3.85258197 19.6588934,3.89356557 L14.6761885,6.08155738 L14.6761885,4.16987705 C14.6761885,4.0679918 14.6247541,3.97295082 14.5394262,3.9172541 C14.4540984,3.86151639 14.3464344,3.85258197 14.2531148,3.89356557 L9.27045082,6.08159836 L9.27045082,4.16987705 C9.27045082,4.0679918 9.21897541,3.97295082 9.13368852,3.9172541 C9.04831967,3.86147541 8.94069672,3.85262295 8.84737705,3.89356557 L3.54729508,6.22090164 L3.54729508,2.53196721 C3.54729508,2.39868852 3.43918033,2.29057377 3.30586066,2.29057377 L0.241434426,2.29057377 C0.108114754,2.29057377 0,2.39868852 0,2.53196721 L0,14.400123 C0,14.7162705 0.256270492,14.9725 0.572336066,14.9725 L19.7802459,14.9725 C19.9468852,14.9725 20.0819672,14.837418 20.0819672,14.6707787 L20.0819672,4.16987705 C20.0819672,4.0679918 20.0305328,3.97295082 19.9452049,3.9172541 L19.9452049,3.9172541 Z M7.23221311,11.3161885 C7.23221311,11.472377 7.10557377,11.5990164 6.94934426,11.5990164 L5.58221311,11.5990164 C5.42598361,11.5990164 5.29938525,11.4723361 5.29938525,11.3161885 L5.29938525,9.05327869 C5.29938525,8.89704918 5.42602459,8.77045082 5.58221311,8.77045082 L6.94934426,8.77045082 C7.10561475,8.77045082 7.23221311,8.89709016 7.23221311,9.05327869 L7.23221311,11.3161885 L7.23221311,11.3161885 Z M12.6379508,11.3161885 C12.6379508,11.472377 12.5113115,11.5990164 12.355123,11.5990164 L10.9879918,11.5990164 C10.8318033,11.5990164 10.705123,11.4723361 10.705123,11.3161885 L10.705123,9.05327869 C10.705123,8.89704918 10.8318033,8.77045082 10.9879918,8.77045082 L12.355123,8.77045082 C12.5113115,8.77045082 12.6379508,8.89709016 12.6379508,9.05327869 L12.6379508,11.3161885 L12.6379508,11.3161885 Z M18.0437705,11.3161885 C18.0437705,11.472377 17.9171721,11.5990164 17.7609836,11.5990164 L16.3938115,11.5990164 C16.237623,11.5990164 16.1109836,11.4723361 16.1109836,11.3161885 L16.1109836,9.05327869 C16.1109836,8.89704918 16.2376639,8.77045082 16.3938115,8.77045082 L17.7609836,8.77045082 C17.9171721,8.77045082 18.0437705,8.89709016 18.0437705,9.05327869 L18.0437705,11.3161885 L18.0437705,11.3161885 Z" id="Shape"></path>
                </g>
            </g>
        </g>
    </g>
</svg>