<?xml version="1.0" encoding="UTF-8" standalone="no"?>
<svg width="110px" height="17px" viewBox="0 0 110 17" version="1.1" xmlns="http://www.w3.org/2000/svg" xmlns:xlink="http://www.w3.org/1999/xlink" xmlns:sketch="http://www.bohemiancoding.com/sketch/ns">
    <!-- Generator: Sketch 3.4 (15575) - http://www.bohemiancoding.com/sketch -->
    <title>PANTAU + Pantau</title>
    <desc>Created with Sketch.</desc>
    <defs></defs>
    <g id="Page-1" stroke="none" stroke-width="1" fill="none" fill-rule="evenodd" sketch:type="MSPage">
        <g id="PANTAU-+-Pantau" sketch:type="MSLayerGroup" transform="translate(1.000000, 1.000000)">
            <path d="M43,1 L46.672,1 C47.1160022,1 47.5809976,1.05099949 48.067,1.153 C48.5530024,1.25500051 48.996998,1.43199874 49.399,1.684 C49.801002,1.93600126 50.1309987,2.28099781 50.389,2.719 C50.6470013,3.15700219 50.776,3.7059967 50.776,4.366 C50.776,4.94200288 50.6710011,5.4399979 50.461,5.86 C50.2509989,6.2800021 49.9690018,6.62499865 49.615,6.895 C49.2609982,7.16500135 48.8530023,7.36599934 48.391,7.498 C47.9289977,7.63000066 47.4460025,7.696 46.942,7.696 L44.188,7.696 L44.188,13.744 L43,13.744 L43,1 Z M44.188,6.616 L46.888,6.616 C47.2240017,6.616 47.5539984,6.57700039 47.878,6.499 C48.2020016,6.42099961 48.4899987,6.29500087 48.742,6.121 C48.9940013,5.94699913 49.1979992,5.71600144 49.354,5.428 C49.5100008,5.13999856 49.588,4.7860021 49.588,4.366 C49.588,3.95799796 49.5070008,3.61000144 49.345,3.322 C49.1829992,3.03399856 48.9730013,2.79700093 48.715,2.611 C48.4569987,2.42499907 48.1600017,2.29000042 47.824,2.206 C47.4879983,2.12199958 47.1520017,2.08 46.816,2.08 L44.188,2.08 L44.188,6.616 Z M55.906,1 L57.13,1 L62.494,13.744 L61.162,13.744 L59.776,10.36 L53.026,10.36 L51.586,13.744 L50.344,13.744 L55.906,1 Z M56.464,2.296 L53.494,9.28 L59.344,9.28 L56.464,2.296 Z M64.33,1 L65.86,1 L73.618,12.16 L73.654,12.16 L73.654,1 L74.842,1 L74.842,13.744 L73.312,13.744 L65.554,2.584 L65.518,2.584 L65.518,13.744 L64.33,13.744 L64.33,1 Z M81.16,2.08 L76.804,2.08 L76.804,1 L86.704,1 L86.704,2.08 L82.348,2.08 L82.348,13.744 L81.16,13.744 L81.16,2.08 Z M91.348,1 L92.572,1 L97.936,13.744 L96.604,13.744 L95.218,10.36 L88.468,10.36 L87.028,13.744 L85.786,13.744 L91.348,1 Z M91.906,2.296 L88.936,9.28 L94.786,9.28 L91.906,2.296 Z M108.826,8.866 C108.826,9.55000342 108.748001,10.2039969 108.592,10.828 C108.435999,11.4520031 108.175002,12.0039976 107.809,12.484 C107.442998,12.9640024 106.963003,13.3479986 106.369,13.636 C105.774997,13.9240014 105.046004,14.068 104.182,14.068 C103.317996,14.068 102.589003,13.9240014 101.995,13.636 C101.400997,13.3479986 100.921002,12.9640024 100.555,12.484 C100.188998,12.0039976 99.9280008,11.4520031 99.772,10.828 C99.6159992,10.2039969 99.538,9.55000342 99.538,8.866 L99.538,1 L100.726,1 L100.726,8.56 C100.726,9.01600228 100.768,9.50199742 100.852,10.018 C100.936,10.5340026 101.100999,11.0139978 101.347,11.458 C101.593001,11.9020022 101.940998,12.2679986 102.391,12.556 C102.841002,12.8440014 103.437996,12.988 104.182,12.988 C104.926004,12.988 105.522998,12.8440014 105.973,12.556 C106.423002,12.2679986 106.770999,11.9020022 107.017,11.458 C107.263001,11.0139978 107.428,10.5340026 107.512,10.018 C107.596,9.50199742 107.638,9.01600228 107.638,8.56 L107.638,1 L108.826,1 L108.826,8.866 Z" id="PANTAU" fill="#FF2B2B" sketch:type="MSShapeGroup"></path>
            <g id="Pantau" stroke="#FF2B2B" fill="#FFFFFF" sketch:type="MSShapeGroup">
                <path d="M29.4579733,7.36449332 C26.5179377,2.96198912 21.0227899,0 14.7289866,0 C8.43518336,0 2.94003558,2.96198912 7.60502772e-14,7.36449332 C2.94003558,11.7669975 8.43518336,14.7289866 14.7289866,14.7289866 C21.0227899,14.7289866 26.5179377,11.7669975 29.4579733,7.36449332 Z" id="Oval-1"></path>
                <circle id="Oval-3" cx="14.7289866" cy="7.36449332" r="7.36449332"></circle>
                <ellipse id="Oval-3-Copy" cx="14.7289866" cy="7.36449332" rx="2.94579733" ry="2.94579733"></ellipse>
            </g>
        </g>
    </g>
</svg>