<?xml version="1.0" encoding="UTF-8" standalone="no"?>
<svg width="20px" height="20px" viewBox="0 0 20 20" version="1.1" xmlns="http://www.w3.org/2000/svg" xmlns:xlink="http://www.w3.org/1999/xlink" xmlns:sketch="http://www.bohemiancoding.com/sketch/ns">
    <!-- Generator: Sketch 3.4 (15575) - http://www.bohemiancoding.com/sketch -->
    <title>paper6</title>
    <desc>Created with Sketch.</desc>
    <defs></defs>
    <g id="Page-1" stroke="none" stroke-width="1" fill="none" fill-rule="evenodd" sketch:type="MSPage">
        <g id="Update" sketch:type="MSArtboardGroup" transform="translate(-1030.000000, -336.000000)" fill="#030104">
            <g id="Group" sketch:type="MSLayerGroup" transform="translate(490.000000, 317.000000)">
                <g id="paper6" transform="translate(540.000000, 19.000000)" sketch:type="MSShapeGroup">
                    <g id="Capa_1">
                        <g id="Group">
                            <path d="M5,15.625 L5,19.375 L15,19.375 L15,15.625 L15,13.125 L5,13.125 L5,15.625 L5,15.625 Z M6.25,14.375 L13.75,14.375 L13.75,15.625 L6.25,15.625 L6.25,14.375 L6.25,14.375 Z M6.25,16.875 L13.75,16.875 L13.75,18.125 L6.25,18.125 L6.25,16.875 L6.25,16.875 Z" id="Shape"></path>
                            <path d="M15,4.375 L15,0.625 L5,0.625 L5,4.375 L5,6.875 L15,6.875 L15,4.375 Z" id="Shape"></path>
                            <path d="M17.5,4.375 L16.25,4.375 L16.25,6.875 L16.25,8.125 L3.75,8.125 L3.75,6.875 L3.75,4.375 L2.5,4.375 C1.25,4.375 0,5.625 0,6.875 L0,13.125 C0,14.375 1.25,15.625 2.5,15.625 L3.75,15.625 L3.75,13.125 L3.75,11.875 L16.25,11.875 L16.25,13.125 L16.25,15.625 L17.5,15.625 C18.75,15.625 20,14.375 20,13.125 L20,6.875 C20,5.625 18.75,4.375 17.5,4.375 L17.5,4.375 Z" id="Shape"></path>
                        </g>
                    </g>
                </g>
            </g>
        </g>
    </g>
</svg>